<svg version="1.2" xmlns="http://www.w3.org/2000/svg" viewBox="0 0 363 294" width="363" height="294"><defs><clipPath clipPathUnits="userSpaceOnUse" id="cp1"><path d="m-1260-4774h2880v12346h-2880z"/></clipPath><clipPath clipPathUnits="userSpaceOnUse" id="cp2"><path d="m220.71 231.87c-14.67 13.61-31.44 18.1-49.76 13.91-11.84-2.7-22.92-7.44-32.54-16.4-8.53-7.94-16.54-16.55-22.91-27.16q-0.64-1.06-1.21-2.16c-0.07-0.13-0.01-0.35-0.01-0.92 1.85 1.3 3.54 2.5 5.25 3.66 7.51 5.08 15.2 9.81 23.77 11.48 7.11 1.39 14.32 2.35 21.51 2.67 11.47 0.52 22.96 0.35 34.31-2.18 16.66-3.71 31.47-11.88 43.53-26.57q0.59-0.72 1.21-1.41c0.1-0.12 0.28-0.13 1.03-0.45-0.57 3.96-0.4 8-1.74 11.09-5.69 13.11-12.68 25.38-22.44 34.44z"/></clipPath><clipPath clipPathUnits="userSpaceOnUse" id="cp3"><path d="m359.66 108.18c-6.41-3.06-12.71-6.07-19.23-9.18 1.04 2.49 1.8 4.47 2.69 6.39 0.2 0.43 0.87 0.63 1.28 0.99 2.87 2.5 5.78 4.96 8.57 7.56 0.7 0.65 1.01 1.74 1.5 2.63q-0.27 0.17-0.54 0.33-5.12-4.78-10.24-9.56-0.28 0.21-0.55 0.42 2.58 6.32 5.18 12.68c-1.94 0.37-2.13 0.21-3.58-3.1-0.73-1.66-1.38-3.36-2.37-4.98 0.2 1.57 0.54 3.13 0.57 4.7 0.01 0.94-0.44 1.9-0.68 2.85-0.5-0.79-1.3-1.52-1.46-2.37q-0.88-4.57-1.4-9.19c-0.54-4.91-2.6-8.73-7.65-10.84 2.92 5.84 6.21 11.38 6.68 17.86q-0.35 0.13-0.7 0.27-0.35-0.77-0.69-1.55-3.47-8.49-6.97-16.97c-0.98-2.36-3.02-3.47-5.06-4.48 1.46 3.7 3.14 7.26 4.25 10.98 1.09 3.65 2.41 7.41 1.32 11.28q-0.38 0.08-0.77 0.15c-0.25-0.6-0.62-1.19-0.74-1.82-1.1-5.78-4.11-10.4-8.58-14.11-7.53-6.25-15.17-12.37-23.84-17.01-1.45-0.78-3.1-1.17-4.73-1.4 4.51 2.6 9.13 5.05 13.51 7.86 2.99 1.93 5.7 4.3 8.43 6.61 0.76 0.65 1.11 1.77 1.65 2.68q-0.35 0.24-0.7 0.48c-0.95-0.9-1.84-1.86-2.84-2.69-7.36-6.05-15.34-11.17-24.31-14.37-2.84-1.01-6.35-0.15-9.55-0.15q-0.03 0.26-0.05 0.54c0.81 0.19 1.62 0.42 2.45 0.58 9.35 1.78 17.81 5.72 25.74 10.86 2.19 1.41 2.26 1.72 2.14 3.34q-5.18-3.19-10.39-6.4l-0.36 0.43c0.58 0.66 1.15 1.33 1.89 2.18-0.59 0.09-0.85 0.22-1.02 0.15-9.63-4.3-19.74-6.94-30.12-8.62-2.62-0.42-3.64-0.24-6.32 1.26 9.79 0.81 18.79 3.65 27.4 7.83 0.49 0.23 0.9 0.65 1.28 1.05 0.17 0.19 0.17 0.55 0.37 1.24-0.87-0.28-1.44-0.39-1.96-0.64-7.87-3.7-16.08-6.33-24.67-7.81-3.84-0.66-7.4-0.28-10.75 1.85-1.65 1.06-3.43 1.92-5.11 3.06 11.88-4.03 23.03-0.36 34.19 2.97 0.49 0.15 0.85 0.75 1.03 1.53-5.12-1.13-10.21-2.44-15.36-3.33-5.06-0.88-10.14-2.39-15.34-0.98 11.42 2.32 21.02 8.4 30.59 14.52 1.33 0.85 3.12 1.65 2.99 4.07-0.59-0.26-1.05-0.36-1.38-0.62-7.05-5.41-14.97-9.31-22.91-13.16-4.27-2.06-8.83-3.22-13.56-3.34-1.71-0.04-3.45 0.72-5.16 1.17-0.58 0.15-1.12 0.46-1.88 0.79-0.22-0.85-0.39-1.47-0.59-2.22-0.93 0.13-1.82 0.26-3.13 0.45 3.25 3.78 2.59 8.09 2.8 12.06 0.62 11.76 0.87 23.54 1.17 35.31 0.24 9.23 0.48 18.46 0.45 27.68-0.02 5-0.52 10.01-0.96 15-0.16 1.86 0.43 3 2.2 3.24q3.96 0.53 7.96 0.71c1.24 0.06 1.74-0.74 1.68-2.05-0.44-9.06-0.75-18.12-1.23-27.18-0.45-8.57-0.91-17.15-1.66-25.7-0.8-9.18-1.94-18.33-2.95-27.49q-0.38-3.39-0.8-6.77l0.58-0.15c0.42 1.39 0.92 2.76 1.25 4.17 3.37 14.19 4.95 28.64 6.43 43.11 1.83 17.91 3.08 35.85 2.85 53.84-0.17 13.03-0.81 26.09-1.93 39.07-0.84 9.72-2.76 19.35-4.23 29.01-0.52 3.39-0.52 3.27 2.55 4.75 10.95 5.28 22.38 9.06 34.4 10.93 2.1 0.33 4.27 0.21 6.4 0.37 0.63 0.05 1.24 0.36 1.85 0.54-0.3 0.75-0.42 1.7-0.96 2.19-0.52 0.46-1.48 0.63-2.23 0.59-3.96-0.19-7.96-0.19-11.86-0.8-11.68-1.83-22.23-6.79-32.83-11.83-9.58-4.55-19.65-7.87-30.61-4.67-6.3 1.84-11.64 5.41-17.03 8.94-5.25 3.43-10.43 6.98-15.74 10.33-2.33 1.48-4.88 2.66-7.96 2.65 0.2-0.35 0.25-0.62 0.4-0.68 6.78-3.01 12.19-8.02 18.09-12.32 3.73-2.71 7.5-5.38 11.38-7.86 4.31-2.76 9-4.69 14.36-5.43 4-19.49 7.99-38.92 11.97-58.34q-0.37-0.12-0.75-0.25c-1.59 2.16-3.22 4.28-4.75 6.47-13.5 19.35-32.54 27.64-55.51 26.33-19-1.08-35.98-7.95-50.01-21.44-5.07-4.88-9.83-9.94-13.9-15.66-0.17-0.24-0.42-0.41-1.1-1.04 1.13 6.4 2.02 12.27 3.21 18.07 2.39 11.69 4.93 23.35 7.47 35.01 0.13 0.6 0.78 1.44 1.32 1.55 6.66 1.37 12.15 5 17.51 8.9 5.95 4.32 11.86 8.7 18.04 13.24-1.46-0.45-2.91-0.59-4.04-1.28-5.21-3.19-10.36-6.5-15.49-9.82-5.35-3.45-10.59-7.07-17.13-8.03-4.39-0.64-8.64-0.56-12.95 0.73-6.12 1.83-11.85 4.44-17.56 7.26-8.86 4.38-18.25 6.96-28.19 7.23-1.25 0.04-2.55-0.13-3.74-0.49-0.48-0.15-0.72-1.07-1.07-1.65 0.57-0.25 1.11-0.65 1.69-0.73 3.15-0.39 6.33-0.5 9.44-1.07 9.14-1.67 17.71-5.03 26.09-8.96 1.72-0.81 1.23-2.02 1.04-3.19-0.91-5.66-2.19-11.27-2.8-16.95-1-9.33-1.9-18.69-2.29-28.06-0.71-17.03-0.01-34.07 1.54-51.04 1.33-14.56 2.6-29.16 6.13-43.43 0.23-0.92 0.52-1.83 0.81-2.74 0.11-0.36 0.3-0.7 0.66-0.98-0.87 7.69-2.07 15.36-2.55 23.07-1.18 18.58-2.03 37.17-2.98 55.76-0.12 2.47 0.29 2.8 2.73 2.47 3.01-0.4 5.23-2.21 7.11-4.43 0.42-0.5 0.42-1.51 0.33-2.25-1.95-16.53-0.76-33.07-0.29-49.61q0.33-11.34 0.97-22.66c0.11-1.97 0.8-3.9 1.32-6.28-0.22-0.07-0.97-0.29-1.78-0.54-0.26 0.72-0.45 1.27-0.63 1.76-0.32 0.02-0.53 0.1-0.62 0.03-3-2.37-6.34-1.52-9.59-0.91-6.29 1.18-11.71 4.46-17.2 7.5-3.19 1.76-6.16 3.92-9.24 5.89-0.3 0.19-0.66 0.3-0.99 0.46q-0.21-0.2-0.43-0.4c0.51-0.67 0.9-1.54 1.56-1.99 8.1-5.51 16.3-10.83 26.16-12.75 0.19-0.04 0.37-0.21 0.5-0.59-8.74-0.6-17.05 1.92-25.52 3.54 2.54-2.5 5.98-2.63 9.17-3.31 3.41-0.72 6.88-1.49 10.33-1.58 3.33-0.09 6.69 0.67 9.55 1.01-4.73-4.02-10.55-5.27-17.01-3.05-5.62 1.94-11.22 3.96-16.83 5.94-0.34 0.12-0.7 0.17-1.18 0.28 1.34-3.12 11.91-6.74 23.9-8.37q0.06-0.29 0.13-0.58c-1.52-0.21-3.08-0.78-4.54-0.57q-12.8 1.81-24.76 6.76c-0.49 0.2-0.99 0.36-1.98 0.72 0.61-0.98 0.95-1.53 1.28-2.08q-0.09-0.16-0.18-0.32-4.29 2.6-8.59 5.19-0.22-0.2-0.44-0.4c0.8-0.82 1.48-1.81 2.42-2.42 6.59-4.26 13.65-7.47 21.4-9.01 0.5-0.1 0.98-0.29 1.43-0.66-3.09-0.53-6.03-1.11-9.16 0.36-7.54 3.55-14.63 7.69-20.74 13.41-0.09 0.08-0.29 0.05-1.14 0.15 0.81-1.18 1.29-2.08 1.96-2.8 0.99-1.08 2.07-2.07 3.13-3.08-2.6 1.9-5.16 3.85-7.81 5.66-3.48 2.37-5.73 5.7-7.53 9.37-0.77 1.57-1.11 3.36-1.7 5.19-1.92-2.47-0.35-9.05 4.32-18.83-2.28 0.83-3.91 2.05-4.77 4.12-1.9 4.63-3.75 9.29-5.63 13.93-0.17 0.41-0.38 0.81-0.88 1.11 0.21-5.43 2.77-10.06 5.28-14.86-3.83 1.59-5.47 3.57-6.15 7.53-0.53 3.05-0.9 6.14-1.43 9.19-0.12 0.73-0.62 1.4-0.95 2.1l-0.92-0.19c0.11-1.77 0.22-3.54 0.34-5.62-1.84 2.12-1.62 5.26-4.07 6.53l-0.69-0.34q2.09-5.28 4.19-10.55-0.27-0.2-0.53-0.4-4.17 3.9-8.35 7.8-0.21-0.12-0.42-0.23c0.34-0.69 0.55-1.5 1.05-2.04 1.41-1.51 2.73-3.27 4.46-4.27 3.14-1.81 4.43-4.81 5.72-8.25q-7.82 3.73-15.64 7.45l-0.48-0.5c0.69-0.7 1.27-1.58 2.08-2.07 4.44-2.67 9.03-5.13 14.21-5.96 2.79-0.45 4.74-1.93 6.52-4.06-6.99 0.72-13.59 3-20.14 5.49q-0.16-0.34-0.32-0.68c0.79-0.54 1.5-1.26 2.37-1.6 6.31-2.45 12.69-4.61 19.56-4.85 2.86-0.1 4.36-2.48 6.5-3.94-8.47-0.2-16.77 0.38-25.15 2.7 0.39-2.16 1.97-2.28 3.22-2.56 6.93-1.56 13.96-2.59 21.04-1.88 3.64 0.37 6.22-1.07 8.84-3.26-9.62-1.1-19.26-0.69-28.9-0.4q-0.06-0.32-0.12-0.65c0.75-0.28 1.48-0.75 2.25-0.82 8.65-0.82 17.35-1.24 25.89 0.5 2.91 0.59 5.2 0.14 7.72-1.24-11.34-2.77-22.61-5.97-34.68-6.02 1.1-0.34 2.22-1.04 3.29-0.95 4.89 0.39 9.85 0.63 14.64 1.61 6.12 1.26 12.1 3.19 18.15 4.79 0.82 0.21 1.75 0.36 2.56 0.19 4.8-0.96 9.62-1.3 14.62-1-9.91-6.18-20.12-11.7-31.57-15.6 2.04-1.16 3.65-0.49 5.08 0.15 5.58 2.51 11.2 4.96 16.59 7.83 4.05 2.15 7.65 5.16 11.7 7.3 2.35 1.24 5.22 1.49 8.24 2.29-2.13-4.39-18.65-13.85-30.59-18.34 1.11 0 2.37-0.35 3.31 0.06 4.51 1.95 9.01 3.97 13.37 6.23 5.6 2.91 10.71 6.55 15.02 11.25 0.31 0.34 0.7 0.71 1.12 0.86 3.11 1.09 6.23 2.13 9.5 2.95-7.02-8.16-15.53-14.39-24.78-19.94 0.87 0.23 1.82 0.3 2.61 0.7 8.55 4.44 16.51 9.87 22.14 17.73 2.8 3.91 6.84 5.26 10.34 7.78-6.7-10.38-16.52-17.66-25.61-25.93 3.08-0.39 7.87 1.92 23.45 11.15-0.87-6.05-13.92-14.7-29.16-19.34q-0.03-0.29-0.05-0.58c0.97 0 2.06-0.29 2.91 0.05 4.56 1.8 9.08 3.73 13.58 5.69 1.28 0.55 2.46 1.34 3.82 1.78-2.91-3.09-5.55-6.63-9.96-7.55-6.99-1.45-14.03-2.64-21.05-3.93-0.77-0.15-1.55-0.21-2.29-0.67 7.28-0.59 14.32 1.16 21.44 2.44-3.27-3.53-10.35-5.89-14.94-5.19-5.1 0.78-10.23 1.41-15.35 2.07-0.8 0.1-1.62 0.01-2.48-0.44 5.73-2.06 11.77-2.43 17.65-3.55q0.04-0.35 0.09-0.69c-1.69-0.31-3.4-0.99-5.05-0.87-6.75 0.49-13.44 1.36-19.59 4.52q-0.17-0.25-0.34-0.51c0.91-0.64 1.72-1.58 2.73-1.86 4.03-1.16 8.12-2.12 12.19-3.15 0.43-0.11 0.89-0.13 1.87-0.28-3.29-1.68-6.28-1.84-9.15-0.89-4.51 1.5-8.91 3.35-13.35 5.06-0.62 0.24-1.22 0.54-1.82 0.81q-0.2-0.4-0.39-0.8 5.96-2.86 11.92-5.71l-0.16-0.68q-6.47 1.49-12.94 2.97-0.11-0.42-0.21-0.84c3.88-2.05 8.26-2.6 12.84-3.84-2.68-0.41-5.01-0.77-7.33-1.13q0.03-0.38 0.05-0.77 9.01 0.68 18.01 1.37 0.14-0.53 0.27-1.05-6.95-3.08-13.9-6.16l0.01-0.45c0.92 0.09 1.93-0.04 2.74 0.31 4.24 1.8 8.42 3.72 12.62 5.61 3.02 1.36 6.01 2.78 9.06 4.07 1.82 0.77 3.72 1.34 5.71 1.82-6.04-5.85-13.08-10.34-20.24-14.67q0.15-0.44 0.3-0.88c0.93 0.19 2.03 0.13 2.77 0.62 5.95 3.94 11.91 7.89 17.7 12.07 2.03 1.46 3.49 3.7 5.4 5.36 1.59 1.37 3.55 2.31 5.18 3.65 4.16 3.43 8.22 6.98 12.32 10.48 0.34 0.29 0.71 0.55 1.42 0.63-0.34-0.94-0.61-1.9-1.02-2.8-3.55-7.86-8.86-14.51-14.57-20.85-2.81-3.14-5.79-6.12-8.66-9.21-0.66-0.71-1.16-1.56-1.73-2.34l0.44-0.58c0.86 0.41 1.88 0.64 2.55 1.25 9.89 9.09 19.1 18.72 24.19 31.51 0.56 1.41 0.87 2.77 0.57 4.52-0.25 1.4 1.37 3.12 2.17 4.7q0.33-0.12 0.66-0.23c-0.1-0.54-0.15-1.09-0.31-1.61-1.74-5.45-3.52-10.89-5.21-16.36-0.31-1-0.25-2.12-0.36-3.18q0.43-0.1 0.86-0.2c0.36 0.65 0.81 1.26 1.05 1.94 3.55 10.13 7.12 20.26 10.52 30.44 0.49 1.45 0.07 3.19 0.47 4.92 0.56-1.64 0.93-3.38 1.73-4.89 1.11-2.1-0.54-3.39-1.02-5.06-1.69-5.87-3.6-11.71-4.8-17.69-1.46-7.23-2.3-14.6-3.34-21.92-0.13-0.97 0.19-2.01 0.79-3.04 2.77 14.8 4.75 29.7 9.47 44.6 1.48-2.9 2.77-5.33 3.94-7.82 0.17-0.36-0.06-1.09-0.35-1.47-6.13-8.12-8.18-17.65-9.57-27.41-0.3-2.12-0.64-4.25-0.77-6.39-0.08-1.4 0.19-2.82 0.3-4.23q0.27 0.04 0.54 0.08c1.11 6.42 2.07 12.89 3.39 19.27 1.33 6.42 3.95 12.38 7.3 18.58 0.94-1.72 1.73-3.04 2.36-4.44 0.18-0.39-0.01-1.04-0.21-1.49-1.44-3.15-3.56-6.15-4.25-9.46-1.42-6.74-2.12-13.64-3-20.49-0.13-1 0.38-2.09 0.91-3.11 1.45 11.12 2.68 22.17 7.31 32.98 1.39-1.91 2.54-3.32 3.47-4.87 0.28-0.46 0.16-1.37-0.09-1.94-3.82-8.42-5.09-17.35-5.27-26.49-0.05-2.82 0.42-3.66 2.17-4.72-0.6 10.61 1.65 20.64 4.81 30.81 2.4-1.97 3.73-3.44 3.2-6.85-0.99-6.49-0.89-13.14-1.16-19.73-0.03-0.82 0.46-1.67 1.07-2.39l1.49 23.73q0.41 0.11 0.81 0.22c1.31-1.21 2.59-2.47 3.94-3.64 1.85-1.62 3.69-3.27 5.66-4.73 0.78-0.58 1.9-1 2.85-0.99 1.23 0.02 2.25 0.21 2.35-1.44 0.01-0.13 0.18-0.31 0.3-0.34 3.89-0.94 4.84-4.78 7.16-7.26 0.49-0.53 1.05-0.99 1.84-1.29-0.03 2.91-2.32 4.65-3.4 7.17 3.18 0.21 5.57-3.69 8.91-2.05q0.09 0.36 0.19 0.71-6.51 2.41-13.02 4.81c4.86 0.97 9.64 1.44 14.37-0.29-0.18 1.65-0.61 2.29-2.71 2.39-3.55 0.16-7.27 0.59-10.61-0.29-3.44-0.91-5.39 0.4-8.01 2.87 7.39 1.26 14.34 0.21 21.36 0.61-0.2 0.18-0.37 0.46-0.6 0.51q-10.98 2.46-21.97 4.83c-1.16 0.24-2.38 0.3-3.56 0.28-1.8-0.04-2.94 0.82-4.01 2.62 8.45 0.68 16.47-0.19 24.4-2.24q0.13 0.33 0.25 0.66c-1.26 0.53-2.47 1.29-3.79 1.55-6.17 1.2-12.42 2.35-18.68 1.07-3.69-0.75-5.39 1.12-7.18 4.13 8.02 1.36 15.74 0.24 23.46-0.5l0.16 0.51c-0.72 0.31-1.42 0.81-2.17 0.9-6.93 0.78-13.88 1.96-20.8-0.08-2.11-0.62-2.2 1.16-2.82 2.92 7.55-0.22 15.09-0.45 23.32-0.69-1.21 0.45-1.89 0.86-2.61 0.95-6.63 0.87-13.29 1.49-19.93 0.33-1.95-0.35-2.6 0.37-3.05 2.3h21.09q0.05 0.29 0.09 0.58-3.93 0.52-7.87 1.03 0.08 0.43 0.16 0.86 1.42-0.13 2.88-0.26c-0.05 0.18-0.07 0.4-0.12 0.41-3.24 0.54-4.92 2.76-6.31 5.51-1.07 2.1-2.52 4.01-3.8 6q0.26 0.25 0.52 0.49c1.96-1.97 3.8-4.1 5.93-5.88 2.18-1.82 4.62-3.35 6.99-4.93 2.41-1.62 4.88-3.15 7.42-4.55l-13.94 12.38c0.94 1.33 1.64 0.12 2.28-0.32 3.81-2.58 7.55-5.27 11.4-7.8 0.82-0.53 2-0.5 3.01-0.77q0.65-0.18 1.23-0.54c2.25-1.32 4.38-2.91 6.75-3.96 5.8-2.58 11.69-4.99 17.6-7.32 2.26-0.9 4.67-1.4 7.01-2.09q-0.02-0.31-0.05-0.62-11.28 0.92-22.59 1.84c1.86-2.14 4.63-2.29 7.21-2.54 4.51-0.42 9.04-0.53 13.56-0.79 0.74-0.04 1.48-0.14 2.22-0.21q-0.01-0.26-0.02-0.53l-17.85-1.5-0.01-0.64c2.72-1.29 5.66-0.59 8.51-0.44q4.64 0.25 9.25 0.82c2.99 0.38 6.01 0.75 8.92 1.51 2.86 0.75 5.61 1.98 8.47 2.8-7.68-3.8-15.4-7.49-24.34-8.4 0.79-0.25 1.61-0.78 2.36-0.71 2.35 0.25 4.82 0.36 6.99 1.19 5.85 2.21 11.58 4.77 17.35 7.2 2.16 0.9 4.31 1.8 6.66 2.3-7.41-5.43-14.85-10.76-23.91-13.1q-0.05-0.29-0.11-0.58c0.88-0.1 1.82-0.46 2.61-0.24 1.99 0.54 3.97 1.19 5.83 2.06q9.98 4.68 18.49 11.71 1.28 1.04 3.03 1.45c-6.03-6.17-11.68-12.79-19.95-16.35 0.56 0 1.15-0.11 1.67 0.02 0.76 0.19 1.57 0.43 2.21 0.86 6.03 4.1 12.08 8.16 17.99 12.41 1.51 1.09 2.55 2.81 3.85 4.2 0.64 0.67 1.39 1.24 2.09 1.86q0.21-0.23 0.42-0.46c-2.38-3.91-4.69-7.85-7.19-11.69-0.43-0.67-1.6-0.9-2.45-1.26-0.91-0.38-1.85-0.67-2.78-1q0.09-0.3 0.17-0.6 1.75 0.29 3.49 0.58 0.1-0.32 0.2-0.64c-1.1-1.6-3.04-0.83-4.61-1.08-1.66-0.28-3.34-0.47-5-0.7q0.04-0.3 0.08-0.61h25.19c-0.6-2.79-0.88-2.97-3.35-2.63-8.1 1.11-16.17 0.53-24.24-0.47-0.8-0.1-1.56-0.58-2.24-1.22 9.14 0.28 18.28 0.56 27.69 0.85-1.61-3.72-1.67-3.73-4.85-2.95-6.22 1.54-12.49 0.65-18.74 0.32-1.74-0.09-3.48-0.39-5.19-0.72-0.78-0.15-1.5-0.62-2.18-1.29 9.26 0.4 18.45 1.78 28.33 0.17-1.66-1.85-2.86-3.4-4.31-4.66-0.49-0.44-1.64-0.29-2.45-0.17-8.79 1.32-17.43 0.49-25.97-1.74-1.06-0.28-1.99-1.07-2.83-1.96 9.62 2.46 19.26 3.02 29.38 2.48-1.3-1.94-2.57-2.75-4.7-3.07-7.13-1.07-14.3-2.19-21.24-4.06-2.48-0.67-4.9-1.39-7.47-1.68q-1.3-0.13-2.49-1.07c8.34-0.38 16.66 0.9 24.9-0.5l0.22-0.58c-1.57-1.15-3.1-2.35-4.74-3.39-0.43-0.28-1.23-0.17-1.79 0-4.88 1.53-9.84 1.8-14.84 0.95-1.64-0.28-3.68-0.38-4.03-3.14 5.95 2.17 11.7 1.56 17.45 0.95l0.13-0.69c-2.6-0.75-5.24-1.38-7.77-2.31-2.59-0.94-5.07-2.19-7.73-3.37 0.38-1.44 1.46-1.52 2.68-1.05 1.92 0.74 3.81 1.59 5.71 2.38 0.78 0.32 1.57 0.61 2.75 1.06-1.9-3.11-3.56-5.83-5.22-8.55l0.69-0.72c0.66 0.43 1.49 0.73 1.95 1.31 1.49 1.87 2.8 3.87 4.25 5.76 1.06 1.37 2.01 2.93 4.06 2.99 0.22 0.01 0.62 0.17 0.62 0.28 0.14 3.1 2.61 1.68 4.11 2.21 1.39 0.5 2.79 1.23 3.92 2.18 2.68 2.24 5.19 4.68 7.78 7.04 0.69 0.62 1.39 1.23 2.45 2.17 1.39-9.87 2.18-19.32 1.73-29.34 0.68 0.54 1.27 0.76 1.36 1.12 0.29 1.14 0.53 2.33 0.57 3.51 0.25 8.29 0.02 16.54-1.84 24.68-0.16 0.68 0.18 1.66 0.62 2.25 0.85 1.14 1.94 2.09 3.36 3.57 3.84-12.22 6.56-24.14 5.73-36.65q0.28-0.18 0.56-0.36c0.56 0.85 1.57 1.68 1.6 2.54 0.12 4.35 0.31 8.74-0.13 13.06-0.77 7.61-2.43 15.06-5.8 22.03-0.25 0.52-0.22 1.44 0.08 1.92 1.14 1.81 2.44 3.51 4.08 5.79 5.48-12.84 7.04-25.98 8.22-39.39 1.59 0.62 1.7 2.03 1.63 3.29-0.2 3.57-0.34 7.16-0.92 10.68-0.94 5.71-1.94 11.44-3.46 17.02-0.9 3.28-2.85 6.28-4.66 10.1 0.57 1.11 1.58 3.06 2.77 5.39 8.23-14.15 11.01-29.39 12.33-45.04q0.36-0.09 0.71-0.17c0.29 1.16 0.91 2.35 0.8 3.47-0.48 4.89-1.06 9.79-1.82 14.65-1.39 8.96-3.76 17.64-9.11 25.1-1.82 2.53-2.03 4.4-0.31 6.9 1.2 1.74 1.93 3.8 3.15 6.29 5.59-17.63 8.05-35.33 10.64-53.18 1.9 0.85 1.79 2.23 1.62 3.54-0.87 6.53-1.55 13.11-2.73 19.59-1.3 7.18-2.92 14.32-4.72 21.4-0.77 3.05-2.34 5.89-3.53 8.83-0.22 0.56-0.59 1.25-0.44 1.74 0.8 2.63 1.75 5.22 3.11 7.8 0-0.95 0.31-2.05-0.06-2.83-0.88-1.85 0-3.34 0.56-4.94 3.97-11.41 7.92-22.83 11.91-34.23 0.32-0.92 0.87-1.75 1.31-2.62q0.4 0.08 0.81 0.16c0 1.05 0.25 2.18-0.04 3.14-2.12 6.91-4.35 13.79-6.55 20.68-0.24 0.74-0.46 1.49-0.27 2.46 1.12-1.66 2.26-3.31 3.35-5 0.24-0.38 0.53-1.08 0.36-1.32-1.61-2.24-0.05-4.14 0.67-6.03 3.59-9.47 9.64-17.34 16.42-24.68 3.71-4.03 7.65-7.86 11.58-11.68 0.89-0.86 2.19-1.3 3.3-1.93q0.35 0.37 0.7 0.74c-0.72 0.98-1.38 2.03-2.18 2.94-6.41 7.29-13.13 14.32-19.16 21.89-3.48 4.37-5.9 9.59-8.71 14.48-0.55 0.96-0.68 2.17-0.91 2.94 5.76-4.86 11.31-10.29 17.6-14.65 8.01-5.57 13.99-13.57 22.65-18.28 3.49-1.9 6.83-4.06 10.28-6.03 1.03-0.59 2.21-0.95 3.21 0.7-8.9 5-17.14 10.73-24.71 17.39l0.28 0.6c5.36-2.19 10.76-4.27 16.06-6.58 5.81-2.53 11.51-5.31 17.29-7.89 0.8-0.35 1.83-0.19 2.76-0.27q0.03 0.29 0.07 0.58-8.51 3.75-17 7.49c7.61 2.03 14.93-0.92 22.32-0.46q0.04 0.42 0.09 0.85-4.4 0.68-8.81 1.36c5.23 1.12 10.33 2.32 15.11 4.54q-0.08 0.44-0.17 0.89c-0.75-0.06-1.52-0.02-2.24-0.19-3.55-0.86-7.08-1.81-10.63-2.64-1.02-0.24-2.1-0.18-3.21-0.02 4.87 2.63 10.32 4.08 14.65 7.57q-0.17 0.35-0.34 0.7-1.11-0.55-2.23-1.08c-6.03-2.85-12.03-5.91-18.78-6.6-2.51-0.25-5.1 0.38-7.67 0.99 6.82 1.88 14.13 2.07 19.64 7.16-9.74-3.6-19.52-6.43-30.01-3.85 7.06 1.93 14.44 2.26 21.48 4.19q-0.02 0.48-0.04 0.96c-1.08 0.05-2.19 0.27-3.25 0.13-5.98-0.76-11.98-1.44-17.92-2.47-3.84-0.66-7.33-0.49-10.71 1.66-2.39 1.52-4.98 2.72-7.32 4.52 4.36-0.83 8.69-1.86 13.08-2.42 4.28-0.54 8.6-1.69 12.93-0.65q0.02 0.29 0.04 0.58c-3.42 0.41-6.88 0.65-10.26 1.29-6.23 1.17-12.47 2.38-18.61 3.95-5.14 1.32-8.15 5.7-11.9 8.98l0.29 0.43c1.55-0.88 3.09-1.8 4.67-2.65 5.32-2.86 10.64-5.76 16.64-6.97 1.15-0.23 2.39-0.03 3.66 0.39-7.31 1.48-13.65 4.99-19.97 8.53-6.46 3.61-12.09 8.14-15.56 14.93 8.75-5.85 17.96-10.7 27.84-14.2q0.24 0.34 0.48 0.67c-1.67 1.6-3.24 3.34-5.04 4.77-8.57 6.79-16.47 14.27-23.41 22.72q-1.38 1.7-2.19 3.82 4.96-2.99 9.91-6.01c0.32-0.19 0.55-0.55 0.78-0.86 2-2.64 3.7-5.58 6.04-7.89 5.9-5.83 12.5-10.84 19.76-14.87 1.8-1 3.83-1.58 5.9-1.92-5.3 3.52-10.72 6.89-15.88 10.61-5.2 3.75-10.18 7.82-13.87 13.4 2.11-0.78 4.16-1.81 6.34-2.29 3.49-0.77 6.02-2.7 8.6-5.1 8.84-8.25 19.37-13.81 30.57-18.12 2.78-1.07 2.98-0.91 4.6 0.06-13.39 4.76-25.62 11.6-36.52 20.83 4.15-0.75 8.26-0.5 12.06-3.39 9.53-7.25 20.35-12.35 31.51-16.64 1.67-0.64 3.56-0.69 5.35-1.01q0.06 0.33 0.12 0.65c-6.36 2.85-12.78 5.56-19.06 8.58-6.24 3.01-12.45 6.13-18.41 10.27 3.56 0 6.72 0.04 9.87-0.03 0.68-0.02 1.38-0.35 2-0.67 10.71-5.52 22.22-8.46 33.96-10.64 1.03-0.19 2.13-0.02 3.23 0.23-12.55 2.61-24.84 5.93-36.61 11.03 3.79 0.91 7.25 1.36 11.22-0.14 10.83-4.07 22.21-5.89 33.75-6.64 1.26-0.08 2.58-0.03 3.8 0.24 0.92 0.2 1.73 0.87 2.45 1.57-7.85-1.24-15.23 1.02-22.68 2.25-5.55 0.91-11.02 2.32-16.52 3.52-0.77 0.17-1.51 0.45-2.28 0.91 2.64 0.82 4.83 2.36 8.1 1.66 5-1.06 10.21-1.35 15.35-1.48 5.46-0.12 10.95 0.28 16.42 0.57 1.06 0.05 2.1 0.62 3.08 1.38-11.64-0.12-23.21-0.55-34.76 0.82 3.24 2.36 6.25 4.35 10.72 3.89 8.66-0.9 17.27 0.36 25.73 2.41 1.32 0.32 2.76 0.72 3.27 2.9-10.14-2.84-20.21-3.43-30.42-3.48 2.83 1.93 4.91 4.85 8.9 4.98 8.22 0.26 15.88 2.92 23.35 6.14 0.77 0.33 1.35 1.1 1.85 1.99-8.12-2.7-16.14-5.45-24.65-6.39 2.28 2.01 4.16 4.26 7.57 4.76 6.37 0.93 12.02 3.99 17.49 7.27 1.08 0.65 2.41 1.35 1.89 3.09zm-42.42-15.2c-3.9-6.43-8.57-11.27-16.46-11.12 5.39 3.64 10.83 7.31 16.46 11.12zm-42.94-10.66c-1.13-0.17-2.32 0.13-3.46 0.22 8.43 2.3 16.84 4.59 25.28 6.89-6.92-3.5-14.15-6.01-21.82-7.11zm-8.72-17.68c-6.2 2.94-12.08 6.3-17.49 10.54-4.89 3.84-5.15 9-4.88 14.43 5.5-10.16 14.52-17.03 22.37-24.97zm-24.71 27.24c-1.71-1.38-3.42-2.77-5.03-4.07-1.26 1.13-2.16 1.92-3.06 2.72q-0.2-0.21-0.4-0.42 1.06-1.33 2.13-2.67c-4.58-3.33-4.57-3.32-8.84-0.14-0.75 0.55-1.59 1-2.38 1.49q-0.3-0.39-0.6-0.77 2.54-2.21 5.09-4.42c-0.98-1.44-1.83-0.8-2.82-0.14-2.31 1.54-4.69 2.97-7.04 4.45q-0.34-0.49-0.67-0.99c2.43-1.67 4.85-3.34 7.33-5.05-2.54-1.94-3.75-2.35-4.73-1.5-3.44 3.02-6.85 6.09-10.75 9.57 5.26-0.25 9.84 0.32 14.15 2.49 0.68 0.35 1.69 0.02 2.55 0 3.87-0.1 7.74-0.23 11.61-0.28 1.06-0.01 2.13 0.19 3.2 0.3q0.13-0.29 0.26-0.57zm-3.29 6.63c-4.4 9.17-8.78 18.35-13.24 27.49-0.53 1.11-1.45 2.02-2.2 3.02q-0.31-0.22-0.62-0.44c5.4-11.42 11-22.74 16.34-34.77-2.42 0.15-4.12 0.26-5.37 0.34-0.51 2.45-0.6 4.75-1.46 6.69-3.34 7.46-7.8 14.22-13.52 20.08-0.87 0.89-2.09 1.44-3.15 2.15l-0.52-0.59c0.61-0.75 1.21-1.52 1.86-2.25 5.65-6.34 10.03-13.53 13.8-21.1 0.66-1.34 0.94-2.87 1.54-4.77-1.82 0.31-2.97 0.53-4.13 0.72-1.91 0.3-3.4 0.84-3.36 3.33 0.03 1.28-0.52 2.67-1.11 3.86q-6.53 13.26-13.22 26.44c-0.49 0.99-1.42 1.75-2.15 2.61q-0.23-0.13-0.46-0.26v-1.76c-0.65 0.31-1.21 0.58-2.33 1.12 0.67-1.32 1.11-2.05 1.44-2.84 3.44-8.19 6.9-16.38 10.26-24.62 0.46-1.15 0.39-2.51 0.66-4.37-2.42 1.34-4.25 2.27-5.98 3.36-0.52 0.33-0.93 1.06-1.1 1.68-1.16 4.36-2.2 8.75-3.37 13.1-2.72 10.12-7.91 19.11-12.97 28.16-0.19 0.35-0.63 0.57-1.46 1.27 2.19-10.95 4.34-21.3 4.24-32.06-3.9 0.91-5.08 2.29-4.6 5.26 1.25 7.7-0.1 15.21-1.56 22.71-0.19 1.02-0.94 1.93-1.43 2.9q-0.4-0.15-0.81-0.3c1.63-8.55 3.04-17.13 2.35-25.93-1.48 1.83-3.79 2.81-3.52 5.96 0.5 5.68 0.51 11.41 0.51 17.11 0 2.45-0.44 4.91-0.86 7.33-0.2 1.15-0.82 2.23-1.25 3.34q-0.35-0.13-0.7-0.25c0.9-9.18 1.86-18.34 1.68-27.86-3.23 1.91-4.82 4.95-4.4 7.66 1.36 8.83 0.4 17.61-0.56 26.39-0.08 0.73-0.73 1.4-1.12 2.09q-0.34-0.14-0.67-0.29c0.44-9.46 1.64-18.9 0.76-28.47-2.71 3.95-5.14 8-7.6 12.03-1.27 2.09-1.49 4.11 0.51 6.25-0.72-0.18-1.13-0.29-1.54-0.4-0.93 2.94-0.93 2.94 2.34 5.39 0.66-5.23 1.29-10.27 1.93-15.31 0.54 0.53 0.66 1.05 0.62 1.55q-0.53 7.72-1.15 15.44c-0.28 3.42-1.65 6.85 0.44 10.19 0.27 0.44 0.04 1.19 0.04 1.8l-0.46 0.04c-2.11-3.41-4.21-6.81-6.46-10.46-3.6 5.6 1.17 8.94 2.33 13.11-2.7-1.67-3.26-4.8-5.25-7.03q1.48 3.48 2.96 6.96-0.36 0.2-0.71 0.39c-2.93-1.98-3.25-5.71-5.38-8.21-3.33 1.4-2.17 4.71-2 7.67h-0.97c-0.64-4.1-1.29-8.19-1.98-12.61-1.82 2.87-3.56 5.33-3.21 8.69-2.16-7.01-1.92-14.19-2.01-21.44-2.54 1.23-3.04 3.06-2.7 5.45 0.43 2.99 0.63 6.02 0.93 9.04q-0.29 0.06-0.58 0.13c-0.26-0.53-0.67-1.02-0.76-1.58-1.19-6.77-2.02-13.57-0.82-20.43 0.55-3.14 0.14-4.22-2.97-6.12-0.26 7.39 0.9 14.5 1.77 21.67-0.69-0.66-1.2-1.37-1.37-2.15-1.39-6.31-2.3-12.67-1.35-19.16 0.39-2.62-1.02-4.13-3.94-4.07-0.01 8.85 1.81 17.48 3.21 26.17-2.53-3.92-4.89-7.86-7.09-11.89-0.87-1.6-1.45-3.36-2.02-5.1-1.84-5.58-3.75-11.15-5.34-16.81-0.79-2.82-2.7-4.82-6.29-5.08 0.48 1.85 0.71 3.68 1.4 5.31 2.64 6.3 5.43 12.54 8.16 18.81 0.2 0.47 0.33 0.97 0.55 1.61-0.6-0.17-0.96-0.27-1.35-0.37-0.08 0.44-0.15 0.85-0.31 1.71-0.86-0.99-1.6-1.6-2.04-2.38-1.75-3.12-3.54-6.23-5.07-9.47-2.68-5.65-6.23-10.95-7.2-17.32-0.06-0.39-0.45-0.94-0.78-1.03-1.63-0.44-3.28-0.74-5.55-1.22 3.3 9.41 8.74 16.7 14.4 23.85-5.54-1.8-15.11-17.16-15.15-24.02h-4.85c4.66 9.86 9.15 19.37 13.64 28.88q-0.4 0.19-0.8 0.38c-4.99-8.37-8.91-17.29-13.37-26.19-0.04 0.76-0.12 1.52-0.12 2.29 0.01 17.82-0.13 35.66 0.13 53.48 0.11 7.06 1.16 14.11 1.72 21.16 0.12 1.43 0.7 2.24 2.05 2.84 2.91 1.27 5.64 2.98 8.6 4.1 6.22 2.36 12.4 5.04 18.85 6.53 11.6 2.67 23.5 2.37 35.36 2.04 8.2-0.23 16.33-1 24.32-2.9 16.18-3.86 29.73-12.23 41.13-24.21 0.51-0.53 0.92-1.35 0.98-2.07 0.4-4.52 0.94-9.04 0.96-13.57 0.12-21.41 0.09-42.82 0.1-64.23 0-0.88-0.09-1.76-0.14-2.64-0.63 0.42-0.79 0.85-0.99 1.27zm-12.5 166.74c8.62-1.23 15.97 1.94 23.81 4.75 2.18-26.19 5.46-52.1 4.46-78.45-4.39 0.66-8.28 0-11.96-2.58-4.49 25.71-7.67 51.3-16.31 76.28zm10.22-70.69c1.33-2.54 1.16-5.87 1.72-9.12-0.74 0.26-0.91 0.27-1.02 0.36q-0.61 0.57-1.19 1.17c-11.95 12.08-26.62 18.8-43.12 21.86-11.24 2.08-22.63 2.22-33.99 1.79-7.12-0.27-14.26-1.05-21.3-2.2-8.48-1.37-16.1-5.27-23.55-9.44-1.69-0.95-3.36-1.95-5.19-3.01 0 0.47-0.06 0.65 0 0.75q0.58 0.91 1.2 1.78c6.31 8.73 14.25 15.81 22.7 22.34 9.52 7.37 20.5 11.27 32.23 13.5 18.14 3.44 34.76-0.25 49.28-11.45 9.68-7.46 16.6-17.54 22.23-28.33zm-132.35 1.36c-5.13 2.96-5.13 2.96-10.93 3.58-0.4 20.17 2.26 40.15 3.81 60.41 6.68-2.49 12.87-4.95 20.09-4.25-6.79-19.62-9.49-39.63-12.97-59.74zm10.34-86.13c2.4 0.16 4.58 0.19 6.91-0.82 1.9-0.82 4.17-0.79 6.29-1.07 0.8-0.11 1.64-0.02 2.46-0.02-2.34-2.64-4.81-4.71-7.2-6.87-2.29-2.08-2.46-2.12-5.34 0.04 2.02 1.39 3.99 2.74 5.95 4.09q-0.25 0.39-0.49 0.79c-1.33-0.78-2.7-1.5-3.99-2.35-2.85-1.9-2.83-1.93-4.02-1.02q2.02 1.84 4.03 3.68-0.23 0.34-0.45 0.67c-2.97-1.63-5.72-5.89-9.25-0.99q0.67 0.99 1.35 2-0.14 0.12-0.28 0.23c-0.72-0.65-1.45-1.31-2.4-2.17-1.4 1.19-2.71 2.31-4.4 3.75 4.05 0 7.46-0.17 10.83 0.06zm-9.92-4.41c1.51-1.1 2.94-2.14 4.76-3.47-4.59 0.31-4.69 0.38-4.76 3.47zm1.04-4.65q0.33 0.34 0.66 0.68c3.2-1.3 6.47-2.45 9.56-3.96 0.98-0.49 1.48-1.96 2.2-2.97l-0.5-0.62q-3.74 0.76-7.48 1.52c2.25-1.09 4.64-1.6 6.94-2.36 0.96-0.32 2.35-1.08 2.48-1.82 0.3-1.74 1.57-2.56 2.53-3.69 0.06-0.5 0.13-0.99 0.22-1.64-2.1 0.36-3.95 0.67-5.81 0.99 2.16-0.98 4.37-1.6 6.59-2.2 5.16-1.38 5.16-1.38 5.92-3.28-1.11 0-2.11 0.04-3.11 0-2.77-0.12-5.56-0.13-8.31-0.48-1.25-0.16-1.89 0.06-2.47 1.12-2.08 3.75-4.32 7.41-6.29 11.22-1.24 2.4-2.1 4.99-3.13 7.49zm22.06-15.97c-3.01-0.33-4.5 0.88-5.64 2.71q0.01-0.01 0.02-0.02 0.37 0.66 0.75 1.33c-2.76 1.51-3.28 2.66-1.44 3.81-1.88 0.63-3.51 1.45-3.43 3.96 6.02-1.82 5.88-8.07 9.74-11.79zm25.57 26.49c-12.15-2.66-28.26-3.13-31.69-0.84 4.59 0 8.87-0.24 13.11 0.06 7.59 0.54 14.78 2.97 21.93 5.4 1.33 0.45 2.32 0.28 3.54-0.44 4.64-2.75 9.37-5.37 14.08-8.01 1.28-0.72 2.6-1.37 4.19-2.2-1.51-1.25-2.43-2.99-4.46-1.36 0.19 0.62 0.38 1.24 0.74 2.43-1.25-0.82-2-1.31-2.93-1.92-5.72 2.54-11.49 5.11-17.43 7.74 0.88-3.2 4.08-3.67 5.91-5.14q-2.86-3.44-5.72-6.86-1.16 0.69-2.12 1.27c-0.14-2.22-0.01-4.19-0.45-6.03-0.47-1.99-2.37-2.24-5.2-0.83 1.45 5.12 5.43 8.61 8.36 12.99-0.7 0.12-1.56 0.21-1.88-0.16-3.36-3.89-7.1-7.59-7.91-13.37-2.13 0.16-4.28 0.33-7.03 0.54 1.13 1.28 1.82 2.12 2.57 2.89 3.52 3.57 7.08 7.09 10.55 10.71 0.7 0.73 1.07 1.78 1.84 3.13zm-27.51-18.33l0.46 0.59 3.38-1.94q1.51-2.11 3.02-4.23-0.16-0.15-0.32-0.31-3.27 2.95-6.54 5.89zm9.26-1.85c5.64-2.21 11.35-4.33 16.72-7.11 2.85-1.48 5.1-4.11 7.75-6.33-5.93 1.43-21.86 10.06-24.47 13.44zm26.27-10.02q-3.28 2.41-6.56 4.82c4.65 0.14 5.1-0.2 6.56-4.82zm-0.47 5.21c1.94 0 6.82-5.27 9.27-9.67-5.75 0.91-6.75 5.8-9.27 9.67zm4.83-0.71c-0.6 0.85-1.28 1.65-2.13 2.74 1.55 0.09 2.64-0.05 3.58 0.26 1.63 0.52 2.44-0.13 3.19-1.47 1.58-2.83 3.31-5.58 4.89-8.41 0.67-1.2 1.1-2.53 1.65-3.81l-0.76-0.78c-1.29 0.73-2.93 1.17-3.8 2.25-2.38 2.93-4.42 6.13-6.62 9.22zm18.93-9.15c-0.62 1.28-1.33 2.54-2.18 3.68-2.29 3.05-4.66 6.04-7.02 9.04-1.49 1.88-3.04 3.72-4.65 5.7 2.63 1.11 5.04 1.96 7.28 3.13 1.86 0.96 3.5 0.89 5.44 0.24 11.89-3.96 23.98-6.73 36.67-5.43 0.23 0.02 0.48-0.13 0.72-0.21q-0.03-0.3-0.06-0.61c-12.62-1.74-25.11 0.35-37.75 1.72 2.86-3.44 5.83-6.62 8.86-9.74 3.05-3.14 6.17-6.22 9.25-9.33q-0.19-0.27-0.39-0.55-3.97-0.27-7.9-0.53c-0.91 7.3-12.25 21.49-17.52 21.52 1.12-1.24 2-2.17 2.83-3.14 3.66-4.28 7.4-8.5 10.9-12.9 1.13-1.41 1.63-3.32 2.44-5.04-4.23-1.46-5.27-1.01-6.92 2.45zm34.37 23.14c-0.47 2.86-0.73 5.75-1.3 8.58-0.32 1.59-1.1 3.09-1.67 4.63q0.31 0.19 0.62 0.38 3.75-8.08 7.5-16.15-0.33-0.27-0.66-0.54c-1.22 0.47-2.49 0.84-3.62 1.46-0.46 0.25-0.77 1.05-0.87 1.64zm-6.98-2c2.49-1.3 5.12-2.33 8.25-3.73-0.99-0.11-1.36-0.2-1.72-0.19-11.68 0.31-22.98 2.67-34 6.45-0.57 0.19-0.95 0.9-1.13 1.09-1.49 0.16-2.74 0.29-4.47 0.48 0.87 1.12 1.38 1.78 1.85 2.39 17.3-6.24 22.83-7.46 27.05-5.83-17.44 1.81-31.86 10.42-46.63 18.95 2.14 1.44 3.81 1.66 5.84 0.47 3.5-2.03 7.14-3.83 10.77-5.61 7.36-3.61 14.89-6.74 22.98-8.38 1.2-0.24 2.36-0.91 3.45-1.53 2.61-1.48 5.11-3.17 7.76-4.56zm-12.15 33.74c3.77-8.93 7.38-17.89 9.54-27.42-2.04 1.04-3.81 2.22-5.49 3.52-0.4 0.32-0.77 1.12-0.66 1.59 1 4.69-0.37 9.14-1.3 13.63-0.6 2.91-1.39 5.79-2.09 8.68zm-1.05-9.92c-0.02 2.76-0.53 5.51-0.82 8.27 2.17-6.65 4.38-13.38 4.45-21.22-1.67 1.21-2.83 1.99-3.91 2.88-0.27 0.23-0.42 0.8-0.39 1.19 0.21 2.97 0.68 5.93 0.67 8.88zm-11.69-5.61c0.36-0.17 0.74-0.35 1.02-0.61 3.6-3.33 7.18-6.68 10.59-9.86-4.7 0.12-32.54 14.2-36.52 17.49q2.08 1.6 4.14 3.19c6.83-3.35 13.8-6.78 20.77-10.21zm-2.59 3.58l-0.36-0.62c-6.36 3.56-12.73 7.13-19.22 10.77 1.33 1.51 2.25 1.57 3.61 0.74 3.18-1.94 6.38-3.98 9.82-5.34 2.9-1.15 4.72-3.01 6.15-5.55zm-5.44 8.2q-0.34-0.44-0.67-0.88c-4.68 3.11-9.36 6.22-14.43 9.59 1.28 0.79 2.04 1.26 2.94 1.82 3.66-4.11 8.85-6.27 12.16-10.53zm-4.47 6.35c-1.9 1.67-3.8 3.34-5.89 5.17 0.64 0.43 1.28 1.04 1.44 0.93 2.17-1.45 3.82-3.35 4.45-6.1zm-0.79 26.83c0.91-3.24 0.75-3.6-2.77-6.22-0.9 2.21-0.13 3.86 2.77 6.22zm-3.87-17.64c0.54 0 1.06-0.48 1.03-1.03-0.02-0.56-0.45-1.04-1.03-1.04h-3.82c-0.53 0-1.05 0.48-1.03 1.04 0.03 0.55 0.46 1.03 1.03 1.03zm-8.74 20.81c2.32-2.31 2.64-6.84 0.63-10.32-2.13 2.52-2.29 5.98-0.63 10.32zm1.35-22.04c-1.48-0.54-2.29-2.3-4.05-0.58 1.28 0.56 1.91 2.71 4.05 0.58zm-6.7 17.47c1.91-2.94 3.48-5.88 2.57-9.49-3.73 2.13-3.6 4.55-2.57 9.49zm-24.72-39.16c2.63 7.51 5.25 15.03 8.06 23.06 0.27-0.78 0.37-0.92 0.35-1.03-1.42-6.08-3.68-12.04-2.72-18.47 0.04-0.27-0.1-0.69-0.31-0.85-1.52-1.12-3.07-2.19-4.62-3.28q-0.38 0.28-0.76 0.57zm-7.06-8.23c3.86 2.01 7.7 4.04 11.56 6.03 1.12 0.58 2.27 1.14 3.46 1.54 4.52 1.5 9.07 2.88 13.57 4.43 2.55 0.89 2.51 1 4.91-1.62h-3.75c-0.44-1-1.09-1.87-1.95-2.26-5.88-2.6-11.96-4.57-18.41-5.38 1.6-0.19 3.28-0.52 4.78-0.13 5.06 1.28 10.09 2.74 15.07 4.31 1.48 0.46 2.37 0.42 2.95-1.19-10.71-3.93-21.6-6.54-33.15-6.23q0.48 0.25 0.96 0.5zm-5.13 1.59c2.3 4.93 4.4 9.41 6.5 13.89q0.26-0.11 0.52-0.22c-0.26-0.71-0.58-1.4-0.77-2.12-0.65-2.53-1.54-5.04-1.82-7.61-0.33-3.05-0.37-3.37-4.43-3.94zm43.08 6.46c-2.52-1.63-2.86-1.61-4.68 0.35 2.16 1.65 2.39 1.63 4.68-0.35zm3.15 7.02c-5.14-3.48-5.94-3.81-7.99-0.91 2.7 0.4 4.8 4.37 7.99 0.91zm-9.87 16.66v5.59c3.03-2.71 3.04-3.43 0-5.59zm4.81-7.46c-1.26-0.8-2.42-1.93-3.62 0.3 1.36 0.94 2.54 1.66 3.62-0.3zm1.04 3.04c1.66 0.02 2.65 2.33 4.1-0.09-1.23-0.67-2.21-2.31-4.1 0.09zm4.26-7.1c-2.3-1.55-3.58-1.15-5.67 1.69 2.3 1.59 2.3 1.59 5.67-1.69zm-7.65-36.24c-2.47 2.17-2.47 2.17-0.57 4.58 1.13 1.44 2.24 2.88 3.4 4.29 0.45 0.54 1.02 0.98 1.53 1.46q0.24-0.23 0.48-0.46-2.42-4.95-4.84-9.87zm1.98-1.43l-0.69 0.69 1.73 4.14 0.88 0.13c0.45-0.98 1.52-2.38 1.21-2.84-0.66-0.97-2.04-1.44-3.13-2.12zm8.15-4.19c-3.31-0.82-4.97-0.66-6.42 0.75 0.94 0.38 1.78 0.73 2.63 1.06 2.51 0.99 2.51 0.99 3.79-1.81zm-3.58 8.66c-0.93 0.75-1.69 1.36-2.51 2.03 0.94 1.51 1.75 2.81 2.62 4.19 1.26-0.54 2.31-0.99 3.54-1.52-1.32-1.71-2.45-3.16-3.65-4.7zm6.69 3.31c-1.19-2.3-2-4.83-5.43-5.11 0.94 3.09 3.62 5.65 5.43 5.11zm-48.52-3.08c3.06 2.78 6.09 5.56 9.17 8.3 0.32 0.29 0.85 0.42 1.3 0.46 5.76 0.51 11.52 0.98 17.73 1.51-0.74-0.83-1.25-1.42-1.78-1.97-3.36-3.49-6.8-6.91-10.05-10.5-2.21-2.44-2.58-2.66-6.09-1.01 4.45 3.8 8.75 7.48 13.06 11.17q-0.2 0.25-0.39 0.5c-0.66-0.38-1.39-0.68-1.97-1.16-3.48-2.9-6.98-5.78-10.35-8.79-2.26-2.01-2.51-2.13-5.44-0.21 3.31 2.93 6.55 5.81 9.79 8.68l-0.37 0.5c-0.72-0.39-1.54-0.68-2.16-1.21-2.35-2.01-4.71-4.02-6.92-6.18-2.13-2.08-2.87-2.19-5.53-0.09zm18.29 29.13c0.06-2.61-0.4-3.4-3.17-4.25-0.51 2.72 1.68 13.8 3.14 16.72 0-3.8-0.08-8.14 0.03-12.47zm9.78 8.81v7.6c4.35-3.03 4.33-5.08 0-7.6zm3.88-5.67c3.31 1.28 4.09 1.16 6.4-1.92-1.43-0.72-2.93-1.29-4.22-2.18-1.98-1.34-2.79 1.39-4.7 1.17 0.44-1.01 0.8-1.84 1.27-2.93q-6.22-2.54-12.38-5.05-0.12 0.24-0.23 0.48c1.97 1.68 4.14 3.18 5.87 5.08 2.25 2.49 4.89 4.16 7.99 5.35zm13.7 14.84c0.38-0.41 0.41-1.06 0-1.46-1.22-1.21-2.94-1.84-4.59-2.18-0.52-0.11-1.14 0.15-1.27 0.72-0.11 0.52 0.16 1.16 0.72 1.27q0.58 0.12 1.15 0.29 0.27 0.08 0.54 0.18 0.07 0.02 0.14 0.05h-0.6c-0.26 0-0.54 0.12-0.73 0.3-0.18 0.18-0.31 0.48-0.3 0.73 0.01 0.27 0.1 0.55 0.3 0.73q0.31 0.29 0.73 0.31h2.23c0.26 0 0.54-0.12 0.73-0.31q0.14-0.14 0.22-0.34c0.27 0.01 0.54-0.09 0.73-0.29zm-2.51 6.23q0.32 0.14 0.63 0.29 0.37 0.21 0.79 0.11c0.24-0.07 0.5-0.25 0.62-0.48 0.12-0.24 0.19-0.53 0.1-0.79-0.08-0.25-0.24-0.5-0.47-0.62-0.77-0.38-1.56-0.77-2.43-0.78-0.26 0-0.55 0.12-0.73 0.31-0.18 0.17-0.32 0.47-0.3 0.73 0.01 0.26 0.1 0.54 0.3 0.72q0.31 0.29 0.73 0.31 0.06 0 0.11 0 0.33 0.07 0.65 0.2zm0.24 3.28v0.05q-0.02 0.06-0.04 0.11-0.06 0.13-0.07 0.28-0.04 0.2 0.02 0.41c0.07 0.24 0.25 0.5 0.48 0.62 0.23 0.13 0.52 0.19 0.79 0.1 0.24-0.08 0.5-0.23 0.62-0.47q0.11-0.23 0.19-0.47 0.06-0.25 0.07-0.5 0.01-0.12 0-0.24-0.02-0.25-0.08-0.49c-0.11-0.43-0.35-0.83-0.66-1.14-0.19-0.19-0.47-0.31-0.73-0.31-0.26 0-0.56 0.12-0.73 0.31-0.18 0.19-0.32 0.45-0.3 0.73q0.01 0.42 0.3 0.73 0 0 0.01 0 0.05 0.09 0.1 0.18 0.01 0.05 0.03 0.1zm12.14-80.79c-0.7 4.74-3.43 8.5-5.74 12.47-0.39 0.68-0.73 1.4-1.38 2.62 2.93-1.64 11.92-13.31 13.06-16.64-1.59 0.08-2.95 0.02-4.26 0.27-0.64 0.13-1.6 0.76-1.68 1.28zm24.1 0.31c-4.46 4.73-8.89 9.51-13.32 14.27-0.68 0.73-1.37 1.46-2.15 2.3 6.3-0.57 12.28-1.2 18.28-1.61 2.55-0.18 4.58-0.84 6.45-2.75 2.77-2.82 5.91-5.27 9.21-8.17-1.1-0.44-1.7-0.63-2.25-0.92-1.9-0.99-3.11-0.52-4.61 1.14-2.55 2.81-5.57 5.2-8.47 7.67-0.74 0.63-1.77 0.91-2.67 1.34q-0.17-0.29-0.33-0.58c3.96-3.5 7.93-7 11.98-10.59-3-1.79-4.86-1.44-7.08 0.8-3.68 3.71-7.92 6.86-11.97 10.19-0.71 0.59-1.65 0.91-2.48 1.36q-0.2-0.29-0.39-0.58 7.78-6.63 15.56-13.25l-0.28-0.59c-1.3-0.27-2.59-0.63-3.91-0.75-0.5-0.05-1.19 0.32-1.57 0.72zm14.52-2.67c-2.8-2.49-5.26-4.68-7.71-6.87 2.08 4.42 4.67 6.68 7.71 6.87zm-1.58-11.45c4.48 1.33 8.99 2.51 13.5 3.75q-0.05 0.26-0.09 0.53c-2.69-0.51-5.37-1.03-8.52-1.64 1.15 2.36 2.07 4.14 4.51 4.65 2.03 0.42 4.01 1.1 6.02 1.66l-0.08 0.26c-2.32-0.51-4.65-1.01-7.32-1.6 0.65 2.17 1.47 3.28 3.33 3.59 1.95 0.33 3.86 0.9 5.78 1.41 1.12 0.3 2.21 0.69 3.32 1.04q-0.08 0.27-0.16 0.55c-3.2-0.65-6.39-1.3-10.15-2.07 0.82 1.67 1.08 3.21 1.97 3.84 3.79 2.65 8.17 3.86 12.67 4.87 0.04-0.42 0.08-0.51 0.06-0.58-2.51-8.31-7.22-15.51-11.56-22.89-0.23-0.4-1.16-0.56-1.75-0.52-2.76 0.15-5.52 0.47-8.29 0.61-1.94 0.11-3.89 0.02-5.84 0.02q-0.16 0.4-0.32 0.8c0.97 0.59 1.87 1.41 2.92 1.72zm5.4 11.97c1.11 2.23 3.09 2.81 5.31 3.38-0.42-2.98-2.5-4.11-4.68-5.13q0.87-0.16 1.79-0.32c-0.81-2.27-0.81-2.27-4.77-4.22 0.76 0.06 1.51 0.11 2.34 0.17-0.94-3.59-2.23-4.53-5.97-4.43 0.65 1.98 1.73 3.52 3.7 4.31-1.18 0.18-0.89 0.81-0.47 1.51 0.94 1.57 1.94 3.1 2.75 4.73zm15.17 9.77c2.02 1.47 3.91 2.85 5.87 4.27-0.42-3.87-0.8-4.15-5.87-4.27zm-136.08 14.16c-4.42-4.63-10.09-7.64-15.86-10.36-0.05-0.03-0.19 0.14-0.31 0.25 6.56 6.4 13.88 12.12 18.49 20.41 0.51-3.75 0.28-7.58-2.32-10.3zm-21.15 4.63c-7.29-0.49-13.71 2.34-20.09 5.35q10.04-2.68 20.09-5.35zm-17.82-1.45c-0.6-0.19-1.22-0.27-1.63-0.01q-5.71 3.64-11.38 7.35 2.06-1.24 4.15-2.43c2.94-1.66 5.91-3.28 8.86-4.91zm-7.15 0.73c-6.13 0.17-11.75 3.95-13.14 8.79q6.55-4.38 13.14-8.79zm-12.29 4.09c-5.78 2.24-7.4 7.05-8.92 11.94 2.89-3.87 5.78-7.73 8.92-11.94zm88.7-41.06q0.18 0.33 0.36 0.66l14.15-2.83q-0.06-0.14-0.11-0.29c-3.15-0.49-6.3-1-9.46-1.44-0.41-0.06-0.98 0.11-1.29 0.38-1.25 1.13-2.44 2.34-3.65 3.52zm81.51-25.2c-1.45-2.1-2.83-4.06-4.72-5.19-0.96-0.57-2.81 0.38-4.26 0.63q-0.36 0.05-0.71 0.07-4.06 0.34-8.12 0.66l-0.04 0.35zm105.06 47.78c3.63 4.82 7.15 9.5 10.67 14.17-1.89-5.92-3.97-11.71-10.67-14.17z"/></clipPath><clipPath clipPathUnits="userSpaceOnUse" id="cp4"><path d="m293.42 12.51c-11.86 11.47-24.99 21.76-34.16 35.92 0.39-1.08 0.59-2.27 1.19-3.21 2.16-3.32 4.04-6.95 6.77-9.74 7.32-7.48 15.01-14.61 22.6-21.82 0.85-0.81 2.02-1.29 3.05-1.92q0.28 0.39 0.55 0.77z"/></clipPath><clipPath clipPathUnits="userSpaceOnUse" id="cp5"><path d="m209.06 30.17c-0.47-3.54-0.68-6.76-1.37-9.88-0.7-3.16-1.71-6.28-2.88-9.3-1.12-2.93-2.61-5.73-4.13-8.99 6.24 1.6 12.19 22.37 8.38 28.17z"/></clipPath><clipPath clipPathUnits="userSpaceOnUse" id="cp6"><path d="m58.59 42.45c5.75 1.02 26.43 23.11 28.09 29.86-7.63-11.59-18.35-20.24-28.09-29.86z"/></clipPath><clipPath clipPathUnits="userSpaceOnUse" id="cp7"><path d="m136.2 33.95c-3.71 7.21-6.45 14.68-6.4 23.4-3.86-5.63 1.82-21.51 6.4-23.4z"/></clipPath></defs><style>.a{fill:#e8d0cd}.b{fill:#02374e}</style><g clip-path="url(#cp1)"><g clip-path="url(#cp2)"><path class="a" d="m112.2 184.3h134.7v67.7h-134.7z"/></g><g clip-path="url(#cp3)"><path class="b" d="m0 4.8h362.2v288.9h-362.2z"/></g><g clip-path="url(#cp4)"><path class="b" d="m257.3 9.7h38.1v40.7h-38.1z"/></g><g clip-path="url(#cp5)"><path class="b" d="m198.7 0h16.2v32.2h-16.2z"/></g><g clip-path="url(#cp6)"><path class="b" d="m56.6 40.4h32.1v33.9h-32.1z"/></g><g clip-path="url(#cp7)"><path class="b" d="m123.9 32h14.3v27.3h-14.3z"/></g></g></svg>