<svg version="1.2" xmlns="http://www.w3.org/2000/svg" viewBox="0 0 47 47" width="47" height="47"><defs><clipPath clipPathUnits="userSpaceOnUse" id="cp1"><path d="m-681-12209h2880v12346h-2880z"/></clipPath></defs><style>.a{fill:#fff}</style><g clip-path="url(#cp1)"><g style="opacity:.5"><path fill-rule="evenodd" class="a" d="m46.4 23.6c-0.1 3.1-0.1 6.2-0.2 9.2-0.1 2.5-0.4 4.9-1.6 7.1-1.7 3.4-4.5 5.4-8.1 6.2-2.2 0.5-4.5 0.6-6.7 0.6-4.3 0-8.6 0-12.9 0-1.9-0.1-3.9-0.2-5.8-0.5-5.3-1-8.8-4.8-9.7-10.2-0.3-1.8-0.4-3.6-0.4-5.4 0-5.1 0-10.3 0.1-15.4 0-1.7 0.1-3.5 0.6-5.1 1.2-4.8 4.2-7.7 8.9-8.9 2-0.5 4-0.6 6-0.6q7.5 0 15 0.1c2.3 0 4.6 0.2 6.8 1 3.6 1.5 5.9 4.1 7.1 7.8 0.5 1.7 0.7 3.5 0.7 5.4 0.1 2.9 0 5.8 0 8.7q0.1 0 0.2 0zm-22.8 19q0-0.1 0-0.1c1.9 0 3.8 0 5.6 0 1.9-0.1 3.8-0.1 5.7-0.4 2.8-0.3 5-1.8 6.2-4.5 0.7-1.5 0.9-3 0.9-4.6 0.1-1.9 0.2-3.7 0.2-5.5q-0.1-6.9-0.2-13.7c0-1.5-0.3-3-1-4.4-1.2-2.4-3.2-3.8-5.9-4.2-1.7-0.3-3.4-0.4-5.1-0.4q-5.9-0.1-11.8 0c-2 0-4 0.1-6 0.4-3.5 0.5-5.9 2.8-6.6 6.3-0.3 1.7-0.4 3.5-0.5 5.3 0 3.5 0 7 0 10.6 0 2.6-0.1 5.3 0.4 7.9 0.4 2.5 1.5 4.5 3.7 5.7 1.5 0.9 3.1 1.3 4.8 1.3 3.2 0.1 6.4 0.2 9.6 0.3zm-4.3-11q0-3.6 0-7.2c0-0.5-0.1-0.7-0.6-0.7-0.7 0.1-1.3 0-2 0.1-0.3 0-0.5-0.1-0.5-0.5q0-2.3 0-4.5c0-0.4 0.1-0.5 0.5-0.5q1 0 1.9 0c0.7-0.1 0.7-0.1 0.7-0.8 0-1.1 0-2.1 0.1-3.2 0-1.1 0.1-2.3 0.7-3.3 0.8-1.6 2.1-2.5 3.7-2.6 2.1-0.3 4.2-0.2 6.2-0.3 0.3 0 0.4 0.2 0.4 0.4q0 2.4 0 4.8c0 0.4-0.2 0.4-0.5 0.4q-1.2 0-2.4 0-0.4 0-0.9 0.1c-0.5 0.1-0.8 0.3-0.8 0.8-0.1 1.1-0.1 2.2-0.1 3.3 0 0.3 0.2 0.3 0.4 0.3q1.8 0.1 3.5 0.1c0.7 0 0.8 0.1 0.8 0.8-0.1 1.4-0.3 2.7-0.4 4.1 0 0.4-0.2 0.5-0.6 0.5q-1.5 0-3 0c-0.7 0.1-0.7 0.1-0.7 0.7q0 6.6 0 13.1 0 0.7 0 1.4c0 0.5-0.2 0.7-0.7 0.7q-1.8 0-3.6 0-0.7 0-1.3 0c-0.7 0-0.8-0.1-0.8-0.8q0-2.3 0-4.6v-2.6z"/></g></g></svg>