<svg version="1.2" xmlns="http://www.w3.org/2000/svg" viewBox="0 0 160 104" width="160" height="104"><defs><clipPath clipPathUnits="userSpaceOnUse" id="cp1"><path d="m-586-12008h2880v12346h-2880z"/></clipPath><clipPath clipPathUnits="userSpaceOnUse" id="cp2"><path d="m32 28.98c0 8.03-5.79 13.02-14.98 13.02-9.23 0-15.02-4.99-15.02-13.02 0-8.08 5.79-12.98 15.02-12.98 9.19 0 14.98 4.9 14.98 12.98zm-7.78 0c0-4.26-3.02-6.43-7.2-6.43-4.18 0-7.2 2.17-7.2 6.43 0 4.21 3.02 6.42 7.2 6.42 4.18 0 7.2-2.21 7.2-6.42z"/></clipPath><clipPath clipPathUnits="userSpaceOnUse" id="cp3"><path d="m146.94 15.7c-4.41 0-8.06 1.78-10.16 4.95v-18.65h-8.78v40h8.78v-15.03c1.87-3.12 4.37-4.54 7.27-4.54 3.34 0 5.17 1.93 5.17 5.23v14.34h8.78v-14.94c0-6.64-3.88-11.36-11.06-11.36z"/></clipPath><clipPath clipPathUnits="userSpaceOnUse" id="cp4"><path d="m81 94.04c-7.2 0-11.8-4.3-13.47-10.04l-5.53 2.59c1.71 8.52 9.13 15.41 19 15.41 9.87 0 17.29-6.89 19-15.41l-5.53-2.59c-1.67 5.74-6.23 10.04-13.47 10.04z"/></clipPath></defs><style>.a{fill:#fff}</style><g clip-path="url(#cp1)"><g clip-path="url(#cp2)"><path class="a" d="m0 14h34v30h-34z"/></g><path class="a" d="m42 20h76v12h-76z"/><g clip-path="url(#cp3)"><path class="a" d="m126 0h34v44h-34z"/></g><g clip-path="url(#cp4)"><path class="a" d="m60 82h42v22h-42z"/></g></g></svg>