<svg version="1.2" xmlns="http://www.w3.org/2000/svg" viewBox="0 0 44 46" width="44" height="46"><defs><clipPath clipPathUnits="userSpaceOnUse" id="cp1"><path d="m-606-12209h2880v12346h-2880z"/></clipPath></defs><style>.a{fill:#fff}</style><g clip-path="url(#cp1)"><g style="opacity:.5"><path fill-rule="evenodd" class="a" d="m11 0.6h21c0.4 0.1 0.9 0.1 1.3 0.2q7.3 1.8 9.4 9.4c0.1 0.6 0.2 1.3 0.3 2v22.1q0 0.3-0.1 0.5c-0.3 1.2-0.4 2.4-0.9 3.5-2.1 4.9-5.8 7.5-10.9 7.6-6.4 0.1-12.8 0-19.2 0-2.4 0-4.7-0.7-6.7-2.2-3.5-2.6-5.2-6.1-5.2-10.5q0-9.9 0-19.9c0-0.8 0.1-1.7 0.2-2.5q1.7-7.7 8.9-9.8c0.6-0.2 1.3-0.3 1.9-0.4zm28.2 22.7q0-4.9 0-9.9c0-1-0.1-2-0.4-3-1.3-3.6-4.2-5.8-7.9-5.8q-9.4 0-18.8 0c-0.9 0-1.9 0.2-2.8 0.5-3.4 1.2-5.5 4.4-5.5 8.3q0 9.9 0 19.8c0 1 0.1 2 0.5 3 1.2 3.5 4.1 5.7 7.8 5.7q9.4 0 18.9 0c2.8 0 5-1.2 6.7-3.6 1.1-1.5 1.5-3.3 1.5-5.1q0-5 0-9.9z"/><path fill-rule="evenodd" class="a" d="m32.6 23.3c0 6.4-5 11.7-11.1 11.7-6.1-0.1-11.1-5.3-11.1-11.7 0-6.5 5-11.7 11.1-11.7 6.1 0 11.1 5.2 11.1 11.7zm-3.8 0c0-4.3-3.3-7.7-7.3-7.7-4 0-7.3 3.5-7.3 7.7 0.1 4.2 3.3 7.6 7.3 7.6 4 0 7.3-3.4 7.3-7.6zm4.5-15.1c1.3 0 2.3 1.1 2.3 2.4-0.1 1.4-1.1 2.5-2.4 2.4-1.2 0-2.3-1.2-2.2-2.4 0-1.4 1.1-2.4 2.3-2.4z"/></g></g></svg>