<svg version="1.2" xmlns="http://www.w3.org/2000/svg" viewBox="0 0 155 264" width="155" height="264"><defs><clipPath clipPathUnits="userSpaceOnUse" id="cp1"><path d="m-1931-4804h2880v12346h-2880z"/></clipPath><clipPath clipPathUnits="userSpaceOnUse" id="cp2"><path d="m36.07 134.91c0-23.96-0.04-47.91 0.02-71.87 0.02-5.5 0.35-11 0.54-16.5 0.05-1.42 0.2-2.27 2.09-2.85 8.02-2.44 16.28-2.88 24.5-3.65 19.46-1.84 38.98-1.49 58.48-1.29 3.42 0.03 6.84 0.72 10.25 1.2 1.44 0.21 2.66 0.82 2.8 2.6 0.72 9.26 1.93 18.51 2.1 27.78 0.36 20.3 0.28 40.61 0.23 60.91-0.05 19.72-0.49 39.43-0.37 59.15 0.05 7.55 1.13 15.11 1.84 22.66 0.31 3.3 0.05 3.75-3.11 3.63-15.38-0.57-30.77-1.24-46.16-1.72-13.46-0.42-26.81 0.94-40.11 2.85-2.6 0.37-5.27 0.21-7.9 0.38-0.99 0.06-2 0.24-2.96 0.53q-2.34 0.71-2.63-1.67c-0.11-0.8-0.06-1.63-0.06-2.45q0-39.84 0-79.69 0.22 0 0.45 0z"/></clipPath><clipPath clipPathUnits="userSpaceOnUse" id="cp3"><path d="m5.15 180.65c-0.3-16.43-0.1-30.03-0.89-43.57-1.58-27.44-1.22-54.89-1.23-82.33-0.01-11.36 0.43-22.7 2.69-33.88 1.16-5.75 3.42-10.74 9.12-13.36 1.81-0.83 3.55-1.66 5.68-0.78 0.79 0.33 1.88-0.01 2.83-0.13 7-0.84 13.98-2.21 21-2.46 22.89-0.82 45.8-1.3 68.7-1.76 4.03-0.09 8.14 0.13 12.1 0.84 8.12 1.48 15.29 5.25 21.55 10.62 3.18 2.74 4.62 6.68 4.76 10.72q0.7 19.89 0.81 39.8c0.05 8.68-0.63 17.36-0.56 26.03 0.14 15.36 0.8 30.71 0.89 46.06 0.1 14.99-0.27 29.98-0.38 44.97-0.11 16.03-0.1 32.06-0.24 48.09-0.05 6.22 0.08 12.57-2.68 18.34-1.47 3.08-3.43 6.01-5.59 8.66-2.04 2.51-5.28 2.81-8.3 3-9.63 0.61-19.25 1.38-28.89 1.6-9.94 0.22-19.89-0.17-29.83-0.22-7.88-0.05-15.77 0.04-23.65 0.01-8.15-0.04-16.15-1.21-23.87-3.88-7.97-2.75-14.34-8.04-19.58-14.36-2.16-2.62-2.94-6.8-3.36-10.38-0.75-6.46-0.95-13.01-1.04-19.52-0.15-11.65-0.04-23.3-0.04-32.11zm3.92 2.41c0 5.16-0.14 15.18 0.04 25.2 0.16 8.29 0.56 16.58 1.09 24.86 0.38 5.86 3.21 10.6 8.34 13.36 3.52 1.89 7.42 3.6 11.33 4.14 7.63 1.06 15.39 1.64 23.1 1.7 7.56 0.06 15.13-0.82 22.7-1.19 13.16-0.63 26.32-1.19 39.48-1.8 6.32-0.29 12.37-1.6 17.98-4.7 2-1.1 3.47-2.51 3.89-4.8 0.63-3.34 1.5-6.68 1.7-10.06 0.4-6.88 0.47-13.79 0.6-20.68 0.34-18.03 0.73-36.05 0.92-54.08 0.22-22.78 0.24-45.56 0.4-68.34 0.04-4.97 0.34-9.94 0.45-14.91 0.34-15.34 0.79-30.69 0.89-46.04 0.07-10.17-5.98-17.26-15.94-19.14-3.82-0.71-7.75-1.14-11.63-1.15-14.37 0-28.74 0.16-43.1 0.37-15.89 0.24-31.81-0.26-47.66 1.57-4.32 0.5-8.73 0.7-11.3 4.85-1.41 2.27-2.8 4.89-3.1 7.48-1.12 9.7-2.55 19.47-2.47 29.2 0.2 27.82-0.3 55.64 1.34 83.45 0.89 15.25 0.62 30.56 0.95 50.71zm22.35 71.72q-0.03 0.12-0.05 0.24c0.61 0.2 1.2 0.5 1.83 0.58 7.06 0.9 14.11 2.15 21.21 2.55 7.7 0.45 15.46-0.07 23.18 0.14 19.46 0.5 38.87-0.44 58.26-1.87 0.94-0.07 2.06-0.17 2.73-0.72 3.34-2.7 6.28-5.7 7.8-9.97 1.67-4.72 1.98-9.58 2.06-14.46 0.13-7.72-0.04-15.44 0-23.16 0.14-26.28 0.33-52.55 0.49-78.83 0.01-1.85-0.12-3.7-0.18-5.56-0.31-10.53-0.93-21.06-0.87-31.58 0.09-15.28 0.77-30.56 1.01-45.84 0.11-7.04-0.07-14.09-0.4-21.13-0.28-5.75-2.93-9.89-7.1-11.8 0.31 0.75 0.53 1.36 0.79 1.94 2.94 6.55 4.01 13.39 3.78 20.57-0.55 16.68-1.11 33.38-1.27 50.07-0.23 22.86 0.08 45.72-0.15 68.58-0.25 24.56-0.81 49.12-1.36 73.67-0.07 3.31-0.62 6.68-1.44 9.89-1.79 6.99-5.28 12.45-13.33 13.07q-5.69 0.43-11.38 0.94c-7.4 0.68-14.78 1.55-22.19 2.06-7.34 0.51-14.73 0.45-22.07 1.06-9.71 0.81-19.4 1.23-29.13 0.5q-6.11-0.46-12.22-0.94z"/></clipPath><clipPath clipPathUnits="userSpaceOnUse" id="cp4"><path d="m26.94 125.76c0-23.95-0.04-47.91 0.02-71.87 0.01-5.5 0.35-11 0.54-16.5 0.05-1.42 0.2-2.27 2.09-2.84 8.02-2.44 16.28-2.89 24.5-3.66 19.46-1.83 38.98-1.49 58.48-1.29 3.42 0.04 6.84 0.72 10.25 1.21 1.44 0.2 2.66 0.82 2.8 2.59 0.72 9.26 1.93 18.51 2.1 27.78 0.36 20.3 0.28 40.61 0.23 60.92-0.06 19.71-0.49 39.43-0.37 59.14 0.05 7.56 1.13 15.12 1.84 22.66 0.31 3.31 0.05 3.75-3.11 3.64-15.39-0.58-30.77-1.25-46.16-1.73-13.46-0.42-26.81 0.95-40.11 2.85-2.6 0.37-5.27 0.22-7.9 0.38-0.99 0.06-2 0.24-2.96 0.53q-2.34 0.72-2.63-1.66c-0.11-0.81-0.06-1.64-0.06-2.45q-0.01-39.85 0-79.7 0.22 0 0.45 0zm2.94-90.74v172.18c31.97-7.11 63.63-6.11 95.43-4.24-0.06-0.62-0.08-1.21-0.16-1.78-1.55-11.22-2-22.5-1.81-33.82 0.45-26.55 1.07-53.09 1.27-79.64 0.11-13.9-0.5-27.8-0.84-41.69-0.09-3.99-0.36-7.97-0.58-12.53-31.39-2.78-62.61-2.66-93.31 1.52z"/></clipPath><clipPath clipPathUnits="userSpaceOnUse" id="cp5"><path d="m75.24 216.27c3.39 0.29 6.29 4.02 8.73 8.22 1.97 3.37 1.37 6.9-0.68 9.98-2.55 3.81-6.18 5.68-10.53 5.26-4.33-0.42-7.39-3.04-9.08-7.35-2.7-6.9 2.94-16.11 11.56-16.11zm-8.36 12.38c0.1 0.48 0.14 1.17 0.36 1.78 1.09 2.92 4.22 5.04 6.96 4.77 3.39-0.34 6.5-2.9 7.14-6 0.18-0.85 0.26-1.87-0.02-2.64-0.75-2.09-1.53-4.22-2.65-6.07-1.62-2.68-3.82-3.23-6.54-1.87-3.87 1.92-4.83 5.71-5.25 10.03z"/></clipPath><clipPath clipPathUnits="userSpaceOnUse" id="cp6"><path d="m79.14 11.15c3.92 0.6 7.84 1.14 11.73 1.85 1.69 0.31 3.53 1.23 3.43 3.11-0.07 1.36-1.12 2.98-2.21 3.9-2.93 2.45-6.65 3.06-10.27 2.86-4.98-0.27-9.92-1.09-14.87-1.7-0.5-0.06-1-0.22-1.47-0.41-1.67-0.66-3.66-1.12-3.78-3.39-0.12-2.34 1.81-2.92 3.51-3.58q6.69-2.65 13.86-2.04 0.04-0.3 0.07-0.6zm-15.6 5.8c4.88 4.28 23.8 3.86 27.32-0.61-0.81-0.28-1.53-0.65-2.27-0.75-5.45-0.71-10.89-1.6-16.37-1.97-3.19-0.22-6.11 1.19-8.68 3.33z"/></clipPath></defs><style>.a{fill:#e7e1d9}.b{fill:#02374e}</style><g clip-path="url(#cp1)"><g clip-path="url(#cp2)"><path class="a" d="m33.6 36.2h107.3v185h-107.3z"/></g><g clip-path="url(#cp3)"><path class="b" d="m0.7 0.3h154v263h-154z"/></g><g clip-path="url(#cp4)"><path class="b" d="m24.4 27.1h107.3v185h-107.3z"/></g><g clip-path="url(#cp5)"><path class="b" d="m59 214.3h28.9v27.9h-28.9z"/></g><g clip-path="url(#cp6)"><path class="b" d="m59.6 9.1h36.8v16h-36.8z"/></g></g></svg>