<svg version="1.2" xmlns="http://www.w3.org/2000/svg" viewBox="0 0 398 234" width="398" height="234"><defs><clipPath clipPathUnits="userSpaceOnUse" id="cp1"><path d="m-1241-1012h2880v12346h-2880z"/></clipPath><clipPath clipPathUnits="userSpaceOnUse" id="cp2"><path d="m221.45 7.71c1.35 0.21 2.88 0.38 4.39 0.71 2.55 0.56 4.59 2.04 6.47 3.79 3.95 3.67 6.01 8.21 5.86 13.6-0.12 4.28-1.39 8.26-4.1 11.66-2.82 3.53-6.68 4.94-11.05 5.02-6.26 0.13-11-2.57-15.02-7.46-6.43-7.79-2.6-24.43 10.94-27.07 0.76-0.15 1.54-0.16 2.51-0.25zm-0.42 32.51c5.42-0.03 8.87-1.21 10.91-3.45 3.24-3.55 4.7-7.81 4.58-12.57-0.1-4.06-1.53-7.63-4.37-10.57-0.97-1-1.86-2.23-3.05-2.82-3.04-1.48-6.39-1.91-9.68-1.22-11.1 2.33-16.01 15-9.48 24.25 3.04 4.29 7.35 6.12 11.09 6.38z"/></clipPath><clipPath clipPathUnits="userSpaceOnUse" id="cp3"><path d="m235.8 90.73c0 1.98 0.04 3.42-0.02 4.85-0.02 0.31-0.29 0.78-0.54 0.86-0.27 0.09-0.79-0.09-0.97-0.33-0.23-0.3-0.3-0.78-0.33-1.18-0.28-4.07-0.51-8.14-0.82-12.2-0.13-1.64-0.43-3.27-0.66-4.9-0.06-0.42-0.24-0.83-0.22-1.24 0.03-0.41 0.23-0.81 0.35-1.22 0.31 0.28 0.79 0.51 0.91 0.86 0.48 1.5 1.02 3.01 1.23 4.56 0.48 3.48 0.77 6.98 1.07 9.94z"/></clipPath><clipPath clipPathUnits="userSpaceOnUse" id="cp4"><path d="m249.65 79.66c-0.65-7.3-1.33-14.59-4.2-21.45q-0.18-0.41-0.13-0.74-0.24-0.26-0.41-0.56-0.52 0.1-0.92 0.38 0.16 0.53 0.16 1.08 0.2-0.12 0.4-0.23c0.59 2.59 1.4 5.02 1.66 7.52 0.52 5.07 0.75 10.17 1.08 15.26 0.22 3.23 0.34 6.47 0.7 9.69 0.13 1.17 0.77 2.3 1.31 3.38 0.17 0.34 0.8 0.44 1.22 0.66 0.12-0.48 0.39-0.96 0.35-1.42-0.38-4.53-0.82-9.05-1.22-13.57z"/></clipPath><clipPath clipPathUnits="userSpaceOnUse" id="cp5"><path d="m244.56 58.24q0.24-0.27 0.56-0.48 0.11-0.13 0.23-0.24 0.03-0.38 0.35-0.78c1.54-1.9 2.05-4.11 1.45-6.46-0.85-3.35-3.54-4.91-7.38-4.68-4.45 0.27-8.91 0.5-13.37 0.53-6.5 0.05-13.01 0.1-19.5-0.22-7.01-0.36-14.01-1.13-21-1.77-5.84-0.52-11.67-0.63-17.44 0.56-8.11 1.68-14.16 6-17.09 14.04-0.49 1.35-0.72 2.79-1.09 4.18-1.71 6.31-2.45 12.78-3.05 19.26-0.26 2.76-0.17 5.56-0.22 8.34q-0.03 1.63 0.04 3.26c0.01 0.27 0.29 0.53 0.44 0.79 0.29-0.31 0.33-0.51 0.34-0.71 0.17-3.44 0.15-6.91 0.54-10.33 0.76-6.64 1.59-13.26 3.25-19.76 0.85-3.34 1.67-6.66 3.79-9.42 3.3-4.3 7.67-6.93 12.99-8.04 7.06-1.48 14.15-1.13 21.2-0.22q11.9 1.55 23.87 1.76c5.91 0.1 11.81 0.02 17.73 0 0.69 0 1.4-0.09 2.1-0.13 2.49-0.17 4.98-0.46 7.47-0.47 4.65-0.02 5.92 4.22 4.19 7.44-0.83 1.54-2.1 2.66-3.73 3.28-1.67 0.64-3.36 1.25-5.09 1.69-8.5 2.18-17.22 2.58-25.92 3.19-2.72 0.19-5.41 0.82-8.1 1.3-0.95 0.17-1.63 0.69-1.85 1.76-0.45 2.2-1.01 4.38-1.5 6.57-1.5 6.62-1.65 13.33-1.2 20.06 0.1 1.42 0.58 2.82 1.01 4.19 0.22 0.74 0.82 1.16 1.66 0.87 0.67-0.24 0.88-1.08 0.55-1.91-0.23-0.58-0.51-1.17-0.59-1.78-0.26-2.05-0.45-4.12-0.66-6.18-0.71-7.16 0.08-14.19 1.81-21.13 0.1-0.39 0.55-0.9 0.9-0.97 2.36-0.42 4.71-0.83 7.09-1.05 6.34-0.56 12.71-0.81 19.01-1.59 5.57-0.68 11.15-1.62 16.19-4.82q0.01 0.04 0.02 0.07z"/></clipPath><clipPath clipPathUnits="userSpaceOnUse" id="cp6"><path d="m181.13 2c1.34 0.21 2.88 0.38 4.38 0.71 2.55 0.56 4.6 2.05 6.47 3.79 3.95 3.67 6.02 8.21 5.86 13.6-0.12 4.28-1.38 8.26-4.09 11.66-2.83 3.53-6.68 4.94-11.05 5.03-6.27 0.12-11-2.58-15.03-7.46-6.43-7.8-2.6-24.44 10.95-27.08 0.75-0.15 1.54-0.16 2.51-0.25zm-0.42 32.52c5.41-0.03 8.86-1.22 10.9-3.46 3.18-3.45 4.63-7.61 4.6-12.25-0.03-4.17-1.45-7.85-4.38-10.88-0.97-1-1.86-2.24-3.05-2.82-3.04-1.49-6.38-1.91-9.67-1.23-11.11 2.32-16.02 15-9.49 24.24 3.03 4.3 7.33 6.12 11.09 6.4z"/></clipPath><clipPath clipPathUnits="userSpaceOnUse" id="cp7"><path d="m164.24 71.47c0.13 1.79 0.33 3.53 0.36 5.27q0.13 9.12 0.19 18.25c0.01 0.52-0.07 1.05-0.11 1.57-0.08 1.14-0.68 1.71-1.99 1.69-0.08-0.45-0.24-0.91-0.23-1.37q0.26-10.33 0.55-20.66c0.02-1.13 0.01-2.26 0.1-3.38 0.05-0.58 0.09-1.29 1.13-1.37z"/></clipPath><clipPath clipPathUnits="userSpaceOnUse" id="cp8"><path d="m179 196l20 36 20-36z"/></clipPath><clipPath clipPathUnits="userSpaceOnUse" id="cp9"><path d="m3.48 115.49c0.91-2.04 2.21-3.83 3.51-5.63 1.64-2.21 7.24-8.83 8.48-10 2.33-2.33 3.94-2.75 6.2-1.57 3.97 1.82 8.28 3.87 7.36 6.41-0.82 2.95-4.93 0.78-7.95-1.25-1.07-0.64-1.8-0.76-2.64 0.3-0.69 0.92-1.39 1.68-2.06 2.53-0.56 0.62-0.47 1.38 0.31 1.88 2.44 1.41 4.27 1.96 3.57 4.16-1.15 2.88-3.81 1.01-6.91-0.05-1.22-0.48-1.76-0.37-2.54 0.57-0.5 0.64-1 1.43-1.47 2.15-0.48 0.94-0.25 1.69 0.81 2.18 3.74 1.71 6.64 1.3 5.94 4.31-0.2 0.92-1.07 1.6-2.18 1.68-1.17 0.04-7.99-2.29-8.75-2.64-2.12-1.18-2.68-2.81-1.68-5.03z"/></clipPath><clipPath clipPathUnits="userSpaceOnUse" id="cp10"><path d="m38.9 133.39c1.47-2.27 2.98-4.46 6.66-9.71 1.01-1.53 1.7-2.54 1.24-3.19-0.46-0.65-1.5-0.05-2.48 0.59l-3.8 2.83c-2.1 1.49-3.24 1.79-4.44 1.29-1.99-0.84-1.65-3.22-1.24-5.8 0.16-1.06 0.37-1.68-0.36-1.94-0.62-0.22-1.16 0.36-1.77 1.12-2.05 2.55-3.96 5.08-5.87 7.82-1.27 2.07-2.66 2.69-3.9 1.91-1.06-0.73-1.47-2.13-0.84-3.37 1.36-2.94 9.49-12.9 13-16.68 1.38-1.61 2.91-2.25 4.14-1.81 2.64 0.93 2.07 5.2 1.57 8.43-0.14 0.79-0.08 1.23 0.49 1.57 0.6 0.28 1.01 0.08 2.17-0.7 2.89-1.76 7.9-4.32 9.99-3.58 1.29 0.46 1.99 1.82 1.8 3.57-0.26 2.35-2.34 5.38-3.81 7.65-3.32 5.24-7.97 12.1-9.08 13.11-0.97 0.84-2.23 0.88-3.19 0.06-1-0.71-1.1-1.99-0.28-3.17z"/></clipPath><clipPath clipPathUnits="userSpaceOnUse" id="cp11"><path d="m54.49 136.67c-2.02-6.34 3.64-14.96 9.91-18.98 1.13-0.71 2.34-1.2 3.48-1.44 1.8-0.19 2.74 0.34 3.47 1.91 0.34 0.77 0.69 1.21 1.18 1.61 1.66 1.62 1.28 5.33 0.04 7.99-2.44 5.07-5.94 10.12-10.41 12.23-3.41 1.67-6.48 0.28-7.67-3.32zm14.26-13.83c-0.11-1.33-1.13-1.33-2.4-0.59-3.25 2.32-6 5.32-7.12 9.51-0.47 1.79-0.4 3.03 0.57 3.43 2.4 1.13 9.05-8.92 8.95-12.35z"/></clipPath><clipPath clipPathUnits="userSpaceOnUse" id="cp12"><path d="m79.24 141.89c2.47-3.92 8.05-14.44 8.5-16.56 0.12-0.59-0.03-1.15-0.73-1.3-3.44-0.74-7.2-0.87-8.73-1.19-0.76-0.17-1.29-0.82-1.38-1.98-0.18-1.39 1.27-2.62 2.98-2.52 4.65 0.04 7.99 0.62 20.39 3.33 2.49 0.53 3.53 1.56 3.21 3.11-0.22 1.09-1.27 1.95-2.5 1.82-1.56-0.2-3.68-0.58-4.95-0.85-2.48-0.53-2.72-0.38-3.85 1.87-2.84 5.99-6.15 12.62-8.93 17.01-1.15 1.7-2.79 2.23-3.98 1.23-1.19-0.99-1.2-2.2-0.03-3.97z"/></clipPath><clipPath clipPathUnits="userSpaceOnUse" id="cp13"><path d="m108.61 126.47c0.78-1.14 1.98-1.6 2.96-1.16 1.49 0.58 1.7 2.09 0.69 4.59-1.71 4.31-4.06 8.11-6.27 12.21-2.57 4.76-3.82 7.89-6.12 6.63-2.64-1.19-0.55-4.57 0.97-7.38 3.21-5.39 7.03-13.62 7.77-14.89z"/></clipPath><clipPath clipPathUnits="userSpaceOnUse" id="cp14"><path d="m114.26 149.6c-2.81-6.03 1.71-15.31 7.41-20.12 1.03-0.85 2.17-1.5 3.27-1.88 1.76-0.42 2.76-0.02 3.68 1.44 0.43 0.72 0.84 1.11 1.38 1.45 1.85 1.38 1.95 5.11 1.05 7.91-1.76 5.34-4.6 10.81-8.76 13.49-3.17 2.09-6.39 1.12-8.03-2.29zm12.38-15.59c-0.28-1.3-1.29-1.17-2.45-0.26-2.93 2.72-5.28 6.05-5.85 10.36-0.25 1.82-0.02 3.05 1 3.33 2.52 0.81 7.84-10.03 7.3-13.43z"/></clipPath><clipPath clipPathUnits="userSpaceOnUse" id="cp15"><path d="m133 151.46c0.08-0.92 2.02-5.9 3.7-9.32 2.99-6.6 5.56-13.44 8.21-13.2 0.85 0.01 1.6 0.48 2.12 1.25 0.8 1.2 1.64 5.83 1.96 8.84l0.36 2.47c0.24 1.01 0.4 1.49 1.11 1.56 0.84 0.07 1.28-1.21 2.49-3.75 1.61-3.48 3.35-6.96 4.68-7.9 0.48-0.29 0.95-0.44 1.6-0.38 0.97 0.08 2.18 1.12 1.98 2.62-0.04 0.46-0.28 0.97-0.59 1.53-2.89 4.64-3.8 6.8-6.96 13.85-0.66 1.46-1.39 3.18-2.35 5.14-0.48 0.95-1.31 1.47-2.21 1.39-0.91-0.09-1.78-0.63-2.4-1.67-1.02-1.75-0.97-3.86-2.29-12.57-0.25-0.88-1.28-1.04-1.74-0.29-1.84 3.07-3.75 7.79-4.94 10.92-0.68 1.79-1.8 2.62-3.14 2.16-1.01-0.35-1.7-1.41-1.59-2.65z"/></clipPath><clipPath clipPathUnits="userSpaceOnUse" id="cp16"><path d="m171.77 153.86c0.11-0.86-0.38-1.61-1.22-1.71l-4.15-0.41c-0.72-0.04-1.19 0.27-1.75 1.03-1.33 1.92-3 4.28-3.55 4.71-0.87 0.55-1.97 0.49-2.79-0.14-1.2-0.85-1.19-2.31 0.21-4.28l5.91-8.93c2.46-3.77 8.42-10.98 10.83-12.32 2.14-1.14 4.17-0.05 4.38 2.27 0.2 2.71-2.71 20.83-3.55 23.42-0.39 1.17-1.46 1.77-2.62 1.52-2.19-0.44-1.84-2.34-1.7-5.16zm1.43-7.97c0.62-3.27 0.64-3.8 0.07-4.02-1.27-0.66-4.34 3.4-3.75 4.62 0.24 0.61 0.75 0.7 1.86 0.75 0.91 0.05 1.64-0.38 1.82-1.35z"/></clipPath><clipPath clipPathUnits="userSpaceOnUse" id="cp17"><path d="m182.76 155.03c-0.18-1.45 2.05-7.35 4.42-13.83 1.01-2.75 2.03-5.5 2.97-8.32 0.75-2.36 1.74-3.13 3.29-2.71 1.63 0.41 2.06 1.87 1.18 4.36-1.63 4.71-3.25 9.36-4.27 12.18-1.14 3.21-1.75 4.58-0.85 5.06 0.46 0.27 1.5 0.15 3.78-0.28 2.03-0.37 3.71-0.28 3.95 1.64 0.17 1.18-0.49 2.29-1.6 2.61-3.01 0.94-9.01 2.11-10.18 2.02q-2.34-0.14-2.69-2.73z"/></clipPath><clipPath clipPathUnits="userSpaceOnUse" id="cp18"><path d="m218.98 152.57c0.93-4.21 2.34-16.1 2.75-19.15 0.28-2 1.13-3.04 2.36-3.11 1.69-0.03 2.76 1.55 2.42 3.55-0.26 2.32-1.05 7.78-0.97 9.16 0.04 0.65 0.84 1.07 1.4 0.58 0.74-0.71 2.2-2.57 3.14-3.16 1.57-1.08 3.28-0.72 4.29 1 0.93 1.47 0.95 5.09 2.19 5.22 1.12 0.13 2.42-3.25 4.47-8.44 2.4-5.95 3.41-9.83 6.21-8.81 1 0.47 1.66 1.69 1.33 2.82-0.47 2.08-9.07 22.49-9.97 23.87-1.43 2.26-4.11 2.09-5.23-0.29-0.82-1.8-1.26-3.75-1.69-5.77-0.53-2.27-1.38-2.42-2.91-0.62-4.67 6.08-5.09 6.69-5.46 7.11-0.92 0.91-1.95 1.17-3.01 0.77-1.4-0.57-1.89-2.19-1.32-4.73z"/></clipPath><clipPath clipPathUnits="userSpaceOnUse" id="cp19"><path d="m252.14 151.86c-0.23-2.23 0-4.44 0.23-6.65 0.3-2.75 1.84-11.32 2.32-12.96 0.85-3.21 2.04-4.39 4.57-4.53 4.34-0.46 9.07-0.89 9.55 1.77 0.76 2.97-3.86 3.19-7.48 2.98-1.25 0-1.94 0.27-2.12 1.62-0.15 1.13-0.37 2.15-0.52 3.23-0.18 0.81 0.28 1.43 1.2 1.46 2.81-0.03 4.66-0.49 5.15 1.77 0.45 3.07-2.78 2.82-5.98 3.49-1.29 0.2-1.71 0.57-1.91 1.79-0.12 0.81-0.15 1.74-0.19 2.6 0.05 1.06 0.62 1.59 1.79 1.47 4.08-0.44 6.37-2.27 7.27 0.68 0.29 0.9-0.13 1.94-1.05 2.57-0.98 0.63-8.02 2.11-8.87 2.19-2.41 0.06-3.71-1.06-3.96-3.48z"/></clipPath><clipPath clipPathUnits="userSpaceOnUse" id="cp20"><path d="m271.87 150.77c-0.39-1.41 0.92-7.58 2.29-14.36 0.59-2.87 1.18-5.74 1.69-8.68 0.39-2.45 1.24-3.36 2.84-3.19 1.67 0.16 2.32 1.54 1.82 4.13-0.9 4.91-1.8 9.76-2.38 12.7-0.66 3.35-1.05 4.8-0.08 5.13 0.48 0.2 1.5-0.08 3.69-0.85 1.94-0.67 3.63-0.85 4.15 1.01 0.35 1.14-0.14 2.35-1.19 2.82-2.83 1.4-8.59 3.48-9.76 3.58-1.55 0.15-2.58-0.64-3.07-2.29z"/></clipPath><clipPath clipPathUnits="userSpaceOnUse" id="cp21"><path d="m289.64 148.22c-0.44-1.39 0.66-7.6 1.79-14.42 0.48-2.9 0.97-5.79 1.39-8.74 0.3-2.46 1.12-3.41 2.73-3.29 1.67 0.1 2.37 1.45 1.96 4.06-0.73 4.95-1.47 9.82-1.94 12.78-0.54 3.37-0.88 4.84 0.1 5.13 0.49 0.18 1.49-0.13 3.66-0.98 1.91-0.75 3.59-0.98 4.18 0.86 0.39 1.13-0.06 2.35-1.09 2.87-2.78 1.49-8.46 3.77-9.63 3.91-1.55 0.21-2.6-0.54-3.15-2.18z"/></clipPath><clipPath clipPathUnits="userSpaceOnUse" id="cp22"><path d="m307.48 144.93c-0.21-0.9 0.13-6.24 0.68-10.01 0.85-7.22 1.21-14.52 3.81-15.12 0.81-0.26 1.65-0.05 2.39 0.53 1.13 0.88 3.33 5.04 4.55 7.79l1.11 2.25c0.53 0.88 0.82 1.29 1.52 1.13 0.82-0.19 0.85-1.54 1.23-4.33 0.47-3.83 1.07-7.68 2.05-8.98 0.37-0.42 0.77-0.72 1.4-0.86 0.95-0.22 2.43 0.38 2.7 1.87 0.1 0.45 0.02 1.01-0.1 1.65-1.35 5.3-1.55 7.64-2.43 15.34-0.17 1.59-0.35 3.46-0.67 5.62-0.16 1.05-0.79 1.8-1.68 2.01-0.89 0.21-1.88-0.04-2.79-0.84-1.5-1.34-2.09-3.37-6-11.25-0.5-0.76-1.53-0.59-1.74 0.27-0.81 3.49-1.21 8.58-1.39 11.93-0.1 1.91-0.92 3.04-2.32 3.03-1.07-0.02-2.05-0.81-2.32-2.03z"/></clipPath><clipPath clipPathUnits="userSpaceOnUse" id="cp23"><path d="m335.57 137.4c-0.62-2.15-0.78-4.37-0.94-6.58-0.18-2.76-0.17-11.47 0.01-13.17 0.28-3.3 1.23-4.68 3.71-5.27 4.18-1.23 8.76-2.51 9.69 0.03 1.28 2.78-3.23 3.83-6.83 4.27-1.23 0.23-1.86 0.62-1.81 1.97 0.06 1.15 0.02 2.19 0.06 3.27-0.03 0.84 0.53 1.36 1.44 1.23 2.76-0.54 4.49-1.32 5.38 0.82 0.98 2.93-2.25 3.26-5.28 4.5-1.23 0.43-1.58 0.87-1.56 2.1 0.03 0.81 0.16 1.74 0.27 2.59 0.22 1.04 0.89 1.46 2.01 1.13 3.94-1.16 5.88-3.37 7.27-0.63 0.44 0.83 0.22 1.92-0.57 2.7-0.86 0.81-7.53 3.52-8.35 3.76-2.36 0.49-3.83-0.38-4.5-2.72z"/></clipPath><clipPath clipPathUnits="userSpaceOnUse" id="cp24"><path d="m356.72 131.98c-0.8-1.1-0.77-2.58 0.12-3.54q1.27-1.41 3.03-0.26 2.07 1.46 4.49 0.39c3.26-1.53 2.31-5.74-1.51-7.56-1.79-0.75-5.83-2.01-6.96-2.85-1.89-1.42-2.42-3.11-1.81-5.29 1.21-3.59 5.3-7.46 9.62-9.1q2.48-0.91 3.42 0.85c0.73 1.28 0.22 2.37-1.75 3.65-1.62 0.87-3.25 1.74-4.62 3.15-2.17 2.26-1.95 2.87 0.81 3.83 4.67 1.45 7.31 3.64 9.08 7.26 1.65 3.46 0.13 7.93-3.35 10.03-3.47 2.11-8.88 1.84-10.57-0.56z"/></clipPath><clipPath clipPathUnits="userSpaceOnUse" id="cp25"><path d="m380.22 123.19c-0.9-1.03-1-2.51-0.18-3.54q1.14-1.51 2.99-0.52c1.46 0.84 2.97 0.86 4.51 0 3.11-1.82 1.82-5.92-2.15-7.41-1.84-0.59-5.98-1.5-7.18-2.24-2-1.24-2.67-2.89-2.25-5.11 0.9-3.68 4.65-7.89 8.82-9.9q2.39-1.12 3.47 0.55c0.84 1.21 0.42 2.34-1.43 3.79-1.54 1-3.09 2.02-4.33 3.54-1.97 2.43-1.7 3.03 1.13 3.74 4.77 1.05 7.59 3 9.66 6.45 1.93 3.3 0.8 7.89-2.48 10.29-3.28 2.39-8.7 2.6-10.58 0.36z"/></clipPath></defs><style>.a{fill:#dbc0bd}.b{fill:#a4c1cf}.c{fill:#a5c2d0}.d{fill:#f3eee7}</style><g clip-path="url(#cp1)"><g clip-path="url(#cp2)"><path class="a" d="m199.6 5.7h40.7v38.9h-40.7z"/></g><g clip-path="url(#cp3)"><path class="a" d="m230.2 73.4h7.6v25.1h-7.6z"/></g><g clip-path="url(#cp4)"><path class="a" d="m242 54.9h10.9v41.8h-10.9z"/></g><g clip-path="url(#cp5)"><path class="b" d="m145 41.5h104.7v58.4h-104.7z"/></g><g clip-path="url(#cp6)"><path class="b" d="m159.2 0h40.8v38.9h-40.8z"/></g><g clip-path="url(#cp7)"><path class="b" d="m160.5 69.5h6.3v30.8h-6.3z"/></g><g clip-path="url(#cp8)"><path class="c" d="m177 194h44v40h-44z"/></g><g clip-path="url(#cp9)"><path class="d" d="m0.5 95.1h31.4v30.1h-31.4z"/></g><g clip-path="url(#cp10)"><path class="d" d="m19.5 104h38v35.4h-38z"/></g><g clip-path="url(#cp11)"><path class="d" d="m50.5 114.1h25.7v29.6h-25.7z"/></g><g clip-path="url(#cp12)"><path class="d" d="m74.7 116.2h31.1v32.7h-31.1z"/></g><g clip-path="url(#cp13)"><path class="d" d="m95.2 122.9h20.1v29.1h-20.1z"/></g><g clip-path="url(#cp14)"><path class="d" d="m109.5 125.2h24.4v30.8h-24.4z"/></g><g clip-path="url(#cp15)"><path class="d" d="m130.9 126.7h32.5v30.9h-32.5z"/></g><g clip-path="url(#cp16)"><path class="d" d="m155.1 128.7h26.7v32.6h-26.7z"/></g><g clip-path="url(#cp17)"><path class="d" d="m180.6 127.7h18.8v32.1h-18.8z"/></g><g clip-path="url(#cp18)"><path class="d" d="m216.4 126.4h34.5v34h-34.5z"/></g><g clip-path="url(#cp19)"><path class="d" d="m249.9 124.8h21.7v32.6h-21.7z"/></g><g clip-path="url(#cp20)"><path class="d" d="m269.5 122.4h18.7v32.8h-18.7z"/></g><g clip-path="url(#cp21)"><path class="d" d="m287.2 119.6h18.7v33h-18.7z"/></g><g clip-path="url(#cp22)"><path class="d" d="m305.3 115.1h25.7v33.9h-25.7z"/></g><g clip-path="url(#cp23)"><path class="d" d="m332.4 107.9h19v34.7h-19z"/></g><g clip-path="url(#cp24)"><path class="d" d="m351.5 101.2h22.8v35.4h-22.8z"/></g><g clip-path="url(#cp25)"><path class="d" d="m373.5 91.7h23.7v35.7h-23.7z"/></g></g></svg>