<svg version="1.2" xmlns="http://www.w3.org/2000/svg" viewBox="0 0 234 265" width="234" height="265"><defs><clipPath clipPathUnits="userSpaceOnUse" id="cp1"><path d="m-731-4804h2880v12346h-2880z"/></clipPath><clipPath clipPathUnits="userSpaceOnUse" id="cp2"><path d="m24.56 93.56c0.13 1.97 0.3 3.96 0.7 5.89 3.27 16.01 9.94 30.29 22.07 41.46 18.62 17.16 39.75 27.1 65.89 22.71 22.6-3.8 39.44-15.29 49.69-36.06 1.42-2.88 2.78-5.78 3.96-8.76 7.7-19.38 9.62-38.97 0.96-58.54-15.14-34.24-43.62-47.45-77.89-48.95-12.73-0.56-24.49 4.27-34.43 12.17-20.75 16.51-28.98 39.35-30.97 64.99 0 1.7-0.09 3.4 0.02 5.09z"/></clipPath><clipPath clipPathUnits="userSpaceOnUse" id="cp3"><path d="m130.45 167.09c-2.44-3.06-4.76-6.04-7.18-8.91-0.3-0.36-1.35-0.49-1.8-0.25-14.71 7.89-30.51 9.58-46.76 7.87-4.88-0.51-9.82-1.81-14.39-3.62-16.01-6.36-30.11-15.65-40.66-29.56-10.47-13.81-16.97-29.34-16.65-46.94 0.51-27.43 10.71-50.69 31.77-68.51 9.85-8.33 21.73-12.22 34.57-13.1 1.74-0.12 3.45-0.85 5.19-0.91 4.06-0.13 8.23-0.6 12.17 0.11 7.49 1.34 14.92 3.15 22.25 5.22 15.75 4.45 27.93 14.04 37.76 26.99 11.31 14.9 17.18 31.67 16.73 50.37-0.28 11.18-3.22 21.96-7.57 32.29-4.17 9.93-9.16 19.35-16.91 27.1 2.33 2.39 4.44 4.7 6.73 6.81 0.43 0.4 1.78 0.33 2.34-0.06 1.44-0.99 2.6-2.4 4.03-3.41 1.6-1.13 2.6-0.59 3.16 1.26 0.22 0.71 0.65 1.42 1.16 1.96 17.11 18.25 34.27 36.46 51.36 54.73 6.59 7.04 13.03 14.24 19.56 21.35 4.15 4.52 4.61 11.68 1.89 17.23-3.97 8.12-11.22 11.55-18.92 14.54-1.35 0.52-2.75 0.89-4.1 1.4q-4.58 1.73-7.87-1.86c-7.28-7.94-14.75-15.71-21.77-23.87-13.34-15.48-26.41-31.19-39.6-46.8-2.7-3.19-5.45-6.35-8.15-9.54-0.57-0.67-1.07-1.42-1.54-2.16-2.47-3.9-2.4-4.28 0.98-7.36 0.76-0.69 1.41-1.5 2.22-2.37zm-121.75-90.28c-0.23 22.43 4.7 36.02 12.89 48.22 10.88 16.19 26.45 26.59 44.63 32.94 10.44 3.64 21.24 3.3 32.13 1.79 14.31-1.98 26.37-8.34 36.83-17.99 7.93-7.31 12.78-16.74 16.62-26.62 5.61-14.44 8.53-29.13 5.69-44.88-4.19-23.23-24.54-49.13-47.17-56.43-5.42-1.74-10.91-3.27-16.33-5.03-6.36-2.06-12.95-2.32-19.49-2.42-10.29-0.14-19.72 3.4-28.58 8.32-10.31 5.72-18 14.21-23.81 24.39-7.98 13.96-13.24 28.78-13.41 37.71zm145.15 74.51c-8.2 6.83-16.14 13.47-24.11 20.06-2.44 2.02-2.63 2.31-0.56 4.69 3.33 3.82 6.87 7.44 10.22 11.25 15.07 17.15 30.06 34.37 45.17 51.49 5.37 6.07 11.02 11.9 16.5 17.87 1.3 1.42 2.65 1.67 4.51 1.15 5.92-1.68 11.42-4.27 16.4-7.83 1.58-1.14 3.04-3.02 3.62-4.86 0.8-2.55 0.97-5.39 0.91-8.08-0.04-1.55-0.72-3.36-1.71-4.54-4.53-5.43-9.27-10.68-13.94-16q-22.76-25.92-45.5-51.86c-3.86-4.4-7.65-8.86-11.51-13.34zm-16.2-4.21c-4.16 2.9-8.12 5.6-11.99 8.43-0.4 0.3-0.57 1.74-0.25 2.08 2.34 2.46 4.84 4.77 7.18 7.03 4.17-3.35 7.95-6.39 11.68-9.4-2.4-2.95-4.56-5.61-6.62-8.14z"/></clipPath><clipPath clipPathUnits="userSpaceOnUse" id="cp4"><path d="m152.01 167.45c3.54 3.72 7.13 7.4 10.62 11.16 14.35 15.44 28.72 30.85 42.96 46.39 4.17 4.56 7.92 9.51 11.82 14.33 0.66 0.82 1.07 1.86 1.6 2.8q-0.33 0.4-0.65 0.8c-0.97-0.55-2.14-0.9-2.87-1.67-4.83-5.17-9.56-10.43-14.34-15.65-7.45-8.12-15.1-16.07-22.31-24.39-9.06-10.46-17.78-21.22-26.63-31.85-0.35-0.42-0.62-0.89-0.92-1.33z"/></clipPath><clipPath clipPathUnits="userSpaceOnUse" id="cp5"><path d="m141.51 174.9c0.68 0.71 1.38 1.4 2.03 2.14 13.26 14.92 26.42 29.92 39.79 44.72 5.55 6.14 11.58 11.85 17.33 17.81 1.89 1.96 3.7 4.02 5.34 6.2 0.48 0.63 0.23 1.81 0.32 2.74-0.82-0.29-1.85-0.35-2.42-0.9-18.15-17.39-34.82-36.14-50.47-55.81-3.81-4.78-7.41-9.72-11.08-14.61-0.47-0.61-0.83-1.29-1.24-1.94q0.2-0.18 0.4-0.35z"/></clipPath><clipPath clipPathUnits="userSpaceOnUse" id="cp6"><path d="m83.75 154.94c-8.95-0.06-17.37-2.01-25.38-5.98-9.93-4.93-19.18-10.79-26.48-19.36-17.08-20.03-21.81-42.56-13.22-67.6 3.42-9.97 8.26-19.24 15.37-27.15q14.9-16.57 37.1-18.1c1.5-0.11 2.98-0.55 4.47-0.85 5.68-1.16 11.17 0.14 16.64 1.41 9.31 2.15 18.67 4.25 26.79 9.67 16.8 11.24 27.51 26.76 30.82 46.8 3.6 21.8-3.21 41.26-16.1 58.4-9.41 12.51-22.73 19.39-38.3 21.5-3.89 0.53-7.81 0.85-11.71 1.26zm-64.21-70.18c0 1.45-0.08 2.91 0.02 4.35 0.11 1.69 0.26 3.38 0.59 5.04 2.8 13.67 8.5 25.87 18.86 35.41 15.91 14.66 33.96 23.15 56.29 19.4 19.3-3.24 33.69-13.06 42.45-30.81 1.21-2.45 2.37-4.93 3.38-7.47 6.58-16.56 8.21-33.3 0.82-50.01-12.93-29.26-37.27-40.54-66.54-41.82-10.88-0.48-20.92 3.64-29.41 10.4-17.73 14.1-24.76 33.61-26.46 55.51z"/></clipPath><clipPath clipPathUnits="userSpaceOnUse" id="cp7"><path d="m28.04 77.75c0.62-3.44 1.08-7.53 2.12-11.48 1.11-4.21 4.88-6.51 8.47-5.7 3.89 0.87 6.78 5.25 6.14 9.44-0.26 1.66-0.53 3.36-1.1 4.94-2.55 7.06-2.91 14.21-1.72 21.62 0.91 5.74 1.94 11.4 4.32 16.74 1.36 3.04 2.77 5.98 5.77 7.81 0.55 0.34 0.75 1.24 1.1 1.88-0.72 0.19-1.49 0.63-2.15 0.5-1.16-0.23-2.33-0.68-3.34-1.28-7.69-4.55-13.15-10.9-15.83-19.59-1.97-6.35-3.06-12.81-3.17-19.46-0.03-1.59-0.35-3.18-0.61-5.42zm17.11 38.14c-1.55-5.31-3.37-10.68-4.65-16.18-1.62-6.99-2.39-14.09-0.78-21.25 0.64-2.82 1.2-5.66 1.6-8.52 0.36-2.53-1.4-5.26-3.43-5.72-2.02-0.46-3.97 0.92-4.99 3.56q-0.36 0.9-0.53 1.85-3.05 18.46 4.32 35.62c1.87 4.35 4.89 7.88 8.46 10.64z"/></clipPath></defs><style>.a{fill:#e0e9ef}.b{fill:#02374e}</style><g clip-path="url(#cp1)"><g clip-path="url(#cp2)"><path class="a" d="m19.4 8.7h156.1v161.3h-156.1z"/></g><g clip-path="url(#cp3)"><path class="b" d="m0.7 0.6h233.2v263.6h-233.2z"/></g><g clip-path="url(#cp4)"><path class="b" d="m149.3 165.5h71.7v79.4h-71.7z"/></g><g clip-path="url(#cp5)"><path class="b" d="m139.1 172.9h69.4v77.6h-69.4z"/></g><g clip-path="url(#cp6)"><path class="b" d="m8.1 12.7h147.4v144.2h-147.4z"/></g><g clip-path="url(#cp7)"><path class="b" d="m26 57.8h29.1v67.8h-29.1z"/></g></g></svg>