<svg version="1.2" xmlns="http://www.w3.org/2000/svg" viewBox="0 0 259 225" width="259" height="225"><defs><clipPath clipPathUnits="userSpaceOnUse" id="cp1"><path d="m-1315-8374h2880v12346h-2880z"/></clipPath><clipPath clipPathUnits="userSpaceOnUse" id="cp2"><path d="m160.98 141.72c-3.99 0.83-7.97 1.75-11.94 2.67-2.44 0.57-3.35 2.1-3.69 4.59-0.58 4.34-1.66 8.62-2.62 12.9-0.41 1.81-0.34 2.96 1.45 4.39 4.18 3.33 7.93 7.19 11.84 10.83-2.19 3.99-4.41 8.03-6.6 12.09-0.71 1.31-1.35 2.67-1.99 4.02-0.64 1.35-1.48 1.69-3.01 1.14-4.89-1.75-9.84-3.34-14.78-4.98-1.93-0.65-3.73-0.47-5.41 0.81-1.3 0.99-2.63 1.99-4.06 2.76-2.24 1.2-4.5 2.49-6.91 3.22-1.96 0.6-2.78 1.43-2.49 3.4q0.94 6.46 1.79 12.92c0.15 1.21 0.17 2.44 0.26 3.81-6.85 1.25-13.55 2.48-20.3 3.71-1.68-4.1-3.46-8.2-5.05-12.37-1.34-3.54-1.68-3.83-5.25-3.79-3.28 0.04-6.61-1.03-9.83-1.91-2.24-0.61-3.79-0.33-5.44 1.41-3.62 3.83-7.49 7.43-11.26 11.14-3.79-2.63-7.16-5.09-10.68-7.34-2.08-1.33-4.37-2.35-6.61-3.44-1.31-0.64-1.65-1.55-1.14-2.85q2.34-5.88 4.64-11.78c0.7-1.8 1.34-3.63 2.03-5.5-3.99-2.82-6.56-6.52-8.33-10.8-0.6-1.45-1.59-1.79-3.14-1.66-4.73 0.4-9.47 0.62-14.2 0.98-1.47 0.11-1.96-0.38-2.3-1.84-1.52-6.48-3.24-12.91-4.96-19.65 5.05-1.71 10.47-3.69 15.99-5.35 1.86-0.56 2.37-1.32 2.28-3.13-0.22-4.63 0.58-9.05 3.51-12.88 0.85-1.1 0.53-2.09-0.41-2.93-4.35-3.86-8.64-7.78-13.11-11.5-1.17-0.97-1.72-1.62-0.87-2.97 3.2-5.05 6.36-10.14 9.64-15.15 0.29-0.42 1.57-0.64 2.15-0.4 5.02 2.09 10.03 4.23 14.97 6.52 1.47 0.68 2.38 0.41 3.71-0.37 3.96-2.29 8.04-4.38 12.16-6.39 1.26-0.62 1.51-1.45 1.49-2.63-0.07-5.13-0.07-10.27-0.19-15.4-0.03-1.45 0.29-2.12 1.94-2.43 5.24-1.01 10.43-2.24 15.62-3.48 1.19-0.28 1.77-0.07 2.27 1.08q3.16 7.34 6.52 14.6c0.24 0.52 1.08 1.19 1.54 1.12 4.5-0.69 8.38 1.43 12.46 2.56 1.7 0.46 3.02 0.91 4.1-1.14 0.6-1.13 2.05-1.8 3.03-2.75 2.63-2.55 5.29-5.07 7.8-7.72 1.1-1.16 1.94-1.31 3.39-0.54q8.28 4.37 16.71 8.46c1.74 0.85 1.74 1.61 1.01 3.27-2.33 5.29-4.43 10.68-6.52 16.07-0.21 0.55 0 1.71 0.42 1.96 2.88 1.79 4.27 4.5 5.16 7.56 1 3.47 0.99 3.45 4.7 3.93 5.03 0.65 10.05 1.3 15.05 2.08 0.59 0.09 1.36 0.85 1.53 1.44 1.16 4.18 2.2 8.39 3.25 12.6 0.21 0.81 0.19 1.7 0.48 2.48 0.67 1.78-0.27 2.23-1.8 2.55zm-43.32 3.46c-0.64-5.94-3.53-11.21-6.34-16.44-1.57-2.93-3.61-5.44-6.3-7.4-1.47-1.08-3.12-1.93-4.64-2.97-5.21-3.54-11.14-4.79-17.77-5.57-11.46 1.52-20.84 6.83-26.44 17.46-5.81 11.03-5.14 22 0.76 32.99 5.75 10.73 20.01 16.72 30.6 15.88 7.2-0.57 13.56-3.39 19.18-7.66 8.74-6.65 12.1-15.69 10.95-26.29z"/></clipPath><clipPath clipPathUnits="userSpaceOnUse" id="cp3"><path d="m107.74 198.31c0.55 3.21 1.26 7.04 1.85 10.87q0.42 2.8 0.51 5.62c0.05 1.67-0.62 2.66-2.6 3-6.53 1.12-13.03 2.46-19.53 3.75-2.82 0.56-3.44 0.17-4.4-2.48q-2.44-6.69-5.05-13.31c-0.18-0.45-0.86-0.91-1.37-1-3.96-0.72-7.93-1.39-11.92-1.95-0.76-0.11-1.86 0.07-2.38 0.55-3.87 3.63-7.65 7.36-11.44 11.08-1.76 1.73-2.34 1.52-4.33 0.15-4.43-3.03-9.05-5.79-13.61-8.63-1.45-0.91-3.15-1.52-4.36-2.65-0.68-0.63-1.04-2.16-0.79-3.08 0.7-2.56 1.71-5.04 2.74-7.5 1.07-2.59 2.36-5.08 3.43-7.67 0.2-0.48 0.04-1.43-0.34-1.76-3.23-2.84-5.51-6.29-7.21-10.17-0.23-0.53-1.13-1.1-1.73-1.1-3.52-0.02-7.03 0.14-10.55 0.2-1.99 0.03-3.98 0.09-5.95-0.09-0.51-0.05-1.22-0.88-1.35-1.45-1.34-6.14-2.55-12.32-3.89-18.46-0.83-3.86-0.92-3.89 2.78-5.41 4.28-1.75 8.57-3.47 12.92-5.06 1.13-0.41 1.39-0.98 1.32-1.99-0.26-3.7 0.39-7.26 1.8-10.67 0.54-1.29 1.33-2.48 1.99-3.71-4.26-3.75-8.66-7.59-13.01-11.5-1.24-1.12-1.49-2.71-0.83-4.14 1.73-3.77 3.55-7.51 5.52-11.16 1.02-1.88 2.46-3.54 3.68-5.32 0.98-1.44 2.23-2 3.92-1.28 4.91 2.07 9.82 4.18 14.74 6.23 1.66 0.68 3.14 0.99 4.91-0.32 3.01-2.2 6.37-3.92 9.51-5.95 0.51-0.33 0.94-1.18 0.95-1.79 0.04-4.75-0.06-9.49-0.08-14.23-0.01-3.29 0.26-3.23 3.55-3.78 5.09-0.85 10.12-2.05 15.15-3.2 5.53-1.27 4.67-1.78 7.24 3.33 2.16 4.31 4.08 8.74 6.22 13.36 4.54-0.95 8.82 0.7 13.21 2.11 3.34-3.5 6.73-6.96 10.02-10.5 3.15-3.39 4.2-3.59 8.42-1.52 4.27 2.09 8.6 4.08 12.87 6.15 1.84 0.9 3.63 1.89 5.43 2.88 1.4 0.76 1.7 1.98 1.13 3.34-2.57 6.05-5.2 12.07-7.68 17.82 1.65 1.85 3.41 3.37 4.57 5.25 1.13 1.85 1.63 4.06 2.46 6.22 5.07 0.38 10.46 0.86 15.87 1.13 1.99 0.1 3.43 0.71 3.93 2.6 1.56 5.82 3.11 11.64 4.47 17.51 0.49 2.16-0.38 3.28-2.85 3.94-2.75 0.74-5.58 1.14-8.36 1.77-1.75 0.39-3.46 0.92-5.19 1.35-1.05 0.27-1.54 0.81-1.48 1.94 0.26 4.87-0.97 9.5-2.36 14.12-0.16 0.53 0.41 1.53 0.94 1.96 3.71 3.03 7.5 5.98 11.27 8.93 2.09 1.63 2.12 2.36 0.89 4.59q-4.24 7.71-8.23 15.55c-1.66 3.25-4.14 4.09-7.59 2.8-4.95-1.84-10.01-3.44-15.06-5.04-0.65-0.21-1.56 0.02-2.23 0.31-0.95 0.42-1.79 1.1-2.7 1.64-3.07 1.85-6.16 3.68-9.76 5.82zm42.79-22.82c-3.93-3.64-7.7-7.5-11.91-10.83-1.8-1.42-1.87-2.57-1.46-4.38 0.97-4.29 2.06-8.57 2.64-12.91 0.34-2.49 1.26-4.02 3.71-4.58 4-0.93 8-1.84 12.02-2.68 1.53-0.31 2.48-0.77 1.81-2.55-0.3-0.78-0.28-1.66-0.49-2.48-1.06-4.21-2.1-8.42-3.27-12.6-0.17-0.59-0.94-1.35-1.53-1.44-5.04-0.77-10.09-1.43-15.15-2.08-3.73-0.48-3.72-0.46-4.73-3.93-0.89-3.06-2.29-5.76-5.19-7.55-0.42-0.26-0.64-1.42-0.43-1.97 2.11-5.39 4.22-10.78 6.57-16.07 0.74-1.66 0.73-2.42-1.02-3.27q-8.48-4.09-16.81-8.46c-1.46-0.77-2.3-0.62-3.41 0.54-2.53 2.65-5.2 5.17-7.85 7.72-0.99 0.95-2.44 1.62-3.05 2.75-1.09 2.05-2.41 1.6-4.12 1.14-4.11-1.13-8.01-3.25-12.54-2.56-0.46 0.07-1.31-0.6-1.55-1.12q-3.38-7.26-6.56-14.61c-0.5-1.14-1.08-1.35-2.28-1.07-5.22 1.24-10.45 2.47-15.72 3.48-1.66 0.31-1.98 0.98-1.95 2.43 0.12 5.13 0.12 10.27 0.19 15.4 0.02 1.18-0.23 2.01-1.5 2.63-4.14 2.01-8.25 4.1-12.23 6.39-1.35 0.78-2.25 1.06-3.74 0.37-4.96-2.29-10-4.43-15.06-6.52-0.58-0.24-1.87-0.02-2.16 0.41-3.3 5-6.48 10.09-9.7 15.15-0.85 1.34-0.3 1.99 0.87 2.96 4.5 3.72 8.82 7.64 13.19 11.5 0.95 0.84 1.27 1.83 0.42 2.93-2.95 3.83-3.75 8.25-3.53 12.88 0.09 1.81-0.43 2.57-2.3 3.13-5.55 1.66-11.01 3.64-16.09 5.35 1.74 6.74 3.47 13.17 5 19.66 0.34 1.46 0.83 1.94 2.31 1.83 4.76-0.36 9.53-0.57 14.29-0.98 1.55-0.13 2.55 0.22 3.15 1.67 1.78 4.27 4.37 7.97 8.38 10.79-0.69 1.87-1.33 3.7-2.03 5.5q-2.32 5.9-4.67 11.79c-0.52 1.29-0.17 2.2 1.15 2.84 2.24 1.09 4.55 2.12 6.65 3.45 3.53 2.24 6.93 4.71 10.74 7.33 3.8-3.7 7.68-7.31 11.33-11.13 1.65-1.74 3.22-2.02 5.47-1.42 3.24 0.88 6.59 1.96 9.89 1.92 3.6-0.04 3.93 0.24 5.29 3.78 1.59 4.18 3.38 8.28 5.08 12.38 6.78-1.24 13.52-2.46 20.42-3.72-0.09-1.37-0.11-2.6-0.27-3.81q-0.85-6.46-1.8-12.91c-0.29-1.98 0.54-2.8 2.52-3.4 2.42-0.74 4.69-2.03 6.94-3.23 1.45-0.77 2.78-1.76 4.09-2.76 1.69-1.27 3.5-1.45 5.45-0.81 4.96 1.64 9.94 3.24 14.86 4.99 1.54 0.55 2.39 0.2 3.03-1.15 0.65-1.35 1.29-2.7 2-4.02 2.21-4.06 4.44-8.09 6.64-12.09z"/></clipPath><clipPath clipPathUnits="userSpaceOnUse" id="cp4"><path d="m171.74 22.19c3.2-1.07 5.96-2.14 8.8-2.87 1.4-0.36 1.84-0.95 2.11-2.28 0.73-3.58 1.68-7.12 2.54-10.68 0.4-1.64 1.39-2.66 3.15-2.79 5.17-0.37 10.33-0.77 15.5-1.05 4.01-0.22 4.54 0.42 4.96 4.32 0.42 3.96 1.06 7.9 1.71 11.83 0.09 0.55 0.68 1.39 1.13 1.45 3.39 0.49 5.79 2.42 7.82 4.89 4-1.91 7.88-3.88 11.88-5.59 0.89-0.38 2.58-0.3 3.2 0.29 3.64 3.42 7.18 6.95 10.5 10.65 1.71 1.9 1.35 3.4-0.68 5.31-2.21 2.07-4.48 4.08-6.76 6.08-1.06 0.93-1.03 1.71-0.41 3.03 1.31 2.77 2.31 5.69 3.23 8.61 0.34 1.07 0.8 1.47 1.85 1.62 3.54 0.49 7.07 1.07 10.61 1.6 2.23 0.34 3.06 1.25 3.15 3.5q0.29 7.34 0.6 14.67c0.13 2.75-1.21 4.2-3.87 4.64q-6.19 1-12.3 2.39c-0.8 0.18-1.6 1.11-2.04 1.89-1.62 2.81-3.09 5.71-4.74 8.81 2.06 2.6 4.42 5.58 6.76 8.56q0.54 0.71 0.95 1.5c0.9 1.68 0.88 2.96-0.9 4.36-3.83 3.01-7.43 6.31-11.09 9.54-1.89 1.66-2.45 1.66-4.37 0.04q-4.23-3.56-8.59-6.98c-0.36-0.28-1.1-0.38-1.55-0.22-2.92 1.01-5.85 2.04-8.7 3.22-0.71 0.3-1.48 1.07-1.69 1.77q-1.74 5.72-3.2 11.51c-0.44 1.71-1.15 2.16-3.09 1.95-4.25-0.46-8.56-0.44-12.84-0.61-0.2-0.01-0.4 0.03-0.6 0.05-4.14 0.27-5.08-0.3-5.84-4.3-0.62-3.27-0.96-6.59-1.3-9.9-0.13-1.23-0.62-1.66-1.8-2.12-2.63-1.02-5.16-2.31-7.62-3.69-0.94-0.53-1.55-0.64-2.47-0.09-3.35 2-6.77 3.87-10.08 5.92-1.26 0.78-1.89 0.51-2.8-0.53-3.55-4.05-7.2-8.01-10.83-11.99-1.06-1.17-1.3-2.3-0.24-3.62 2.41-3.04 4.81-6.09 7.1-9.2 0.39-0.53 0.5-1.51 0.32-2.15-0.9-3.05-2.03-6.04-2.87-9.1-0.26-0.95-0.51-1.44-1.52-1.64-3.51-0.72-6.98-1.6-10.5-2.24-2.03-0.37-3.16-1.43-3.74-3.3-1.35-4.36-0.93-8.81-0.65-13.24 0.28-4.63 0.35-4.69 5.03-5.27 3.34-0.42 6.72-0.59 10.06-0.97 1.39-0.16 2.5-0.65 3.14-2.22 1.04-2.53 2.54-4.86 3.72-7.33 0.27-0.56 0.26-1.49-0.04-2.02-1.65-2.91-3.45-5.74-5.15-8.62-1.75-2.98-1.56-3.2 1.03-5.41 3.31-2.82 6.49-5.79 9.62-8.81 1.3-1.27 2.35-1.58 3.93-0.44 3.57 2.6 7.25 5.05 10.47 7.27zm-28.6 76.38c3.63 3.73 7.08 7.15 10.34 10.73 1.08 1.17 1.81 1.11 2.97 0.32 2.89-1.97 5.9-3.78 8.73-5.82 1.33-0.96 2.22-0.72 3.55 0.01 2.52 1.4 5.15 2.66 7.88 3.58 1.31 0.44 2.03 0.89 2.25 2.19 0.12 0.77 0.42 1.51 0.53 2.28q0.74 5.04 1.42 10.09c0.18 1.33 0.85 1.93 2.26 1.84 1.91-0.13 3.83-0.29 5.74-0.2 3.29 0.17 6.57 0.52 10.17 0.81 1.13-4.09 2.34-8.09 3.31-12.14 0.42-1.71 1.3-2.51 2.95-2.98 2.72-0.77 5.55-1.46 8.02-2.76 1.82-0.95 2.91-0.89 4.4 0.34 2.92 2.42 5.98 4.69 8.92 6.97 3.43-2.88 6.73-5.7 10.09-8.46 2.22-1.83 2.77-1.34 0.52-4.17-2.05-2.57-4.18-5.09-6.03-7.79-0.59-0.87-0.96-2.87-0.47-3.31 2.9-2.58 3.92-6.17 5.81-9.28 0.68-1.11 1.99-2.23 3.22-2.55 3.97-1.02 8.03-1.73 12.08-2.44 1.29-0.23 1.88-0.71 1.81-2.03q-0.33-6.07-0.53-12.14c-0.03-0.92-0.21-1.38-1.24-1.59-3.57-0.73-7.08-1.85-10.68-2.28-2.26-0.26-2.79-1.48-3.35-3.13q-1.88-5.55-3.88-11.06c-0.51-1.39-0.32-2.6 0.67-3.62q2.42-2.47 4.95-4.82c1.09-1.03 2.27-1.96 3.7-3.19-3.12-3.15-6.05-6.15-9.06-9.07-0.4-0.39-1.37-0.63-1.88-0.44-4.03 1.51-8.04 3.05-11.98 4.76-1.5 0.65-2.45 0.41-3.46-0.74-1.65-1.88-3.71-3.35-6.21-3.58-1.7-0.16-2.17-0.99-2.39-2.27-0.67-4.13-1.45-8.24-1.87-12.4-0.18-1.76-0.73-2.19-2.4-2.09-4.84 0.3-9.69 0.43-14.52 0.74-0.61 0.04-1.53 0.67-1.7 1.21-1.22 3.86-2.49 7.72-3.31 11.67-0.37 1.78-1.12 2.31-2.7 2.67-3.2 0.72-6.59 0.9-9.36 3.01-0.32 0.24-1.26 0.01-1.7-0.3q-4.96-3.45-9.8-7.04c-1-0.74-1.71-0.93-2.7 0.03-2.07 2.03-4.25 3.95-6.4 5.89-3.7 3.36-3.69 3.35-1.11 7.57 1.51 2.47 3.07 4.9 4.38 7.47 0.39 0.75 0.31 2.08-0.11 2.83-1.78 3.11-3.85 6.07-5.64 9.18-0.59 1.02-1.12 1.52-2.35 1.63q-6.34 0.53-12.65 1.34c-0.61 0.08-1.62 0.76-1.65 1.22-0.3 4.36-0.43 8.73-0.61 13.1-0.05 1.16 0.6 1.43 1.71 1.63 4.36 0.78 8.69 1.74 13.04 2.61 1.58 0.31 2.42 1.47 2.26 2.8-0.46 3.89 0.95 7.15 2.94 10.34 0.75 1.2 0.66 2.27-0.51 3.47-2.92 3.02-5.61 6.25-8.37 9.36z"/></clipPath><clipPath clipPathUnits="userSpaceOnUse" id="cp5"><path d="m77.59 108c6.65 0.78 12.61 2.03 17.84 5.54 1.52 1.03 3.18 1.88 4.66 2.95 2.7 1.95 4.75 4.44 6.33 7.35 2.82 5.2 5.72 10.44 6.36 16.35 1.15 10.53-2.22 19.52-10.99 26.12-5.65 4.25-12.03 7.05-19.26 7.61-10.63 0.84-24.95-5.11-30.72-15.77-5.93-10.93-6.6-21.83-0.77-32.79 5.62-10.57 15.05-15.85 26.55-17.36zm3.3 61.89c6.11 0 13.84-2.71 19.45-7 7.91-6.04 11.29-14.1 9.93-23.69-0.54-3.74-2.39-7.36-3.97-10.89-1.11-2.46-2.43-4.99-4.27-6.94-6.16-6.58-13.75-10.5-23.12-10.53-0.59 0-1.21 0.03-1.78 0.17-4.66 1.14-8.97 2.99-12.96 5.69-9.43 6.38-14.64 18.44-12.21 29.33 3.43 15.29 13.87 22.88 28.93 23.86z"/></clipPath><clipPath clipPathUnits="userSpaceOnUse" id="cp6"><path d="m193.48 40.01c9.27-0.32 16.4 5.06 21.95 12.03 6.92 8.69 7.06 18.41 2.26 27.4-6.06 11.33-16.73 16.21-28.73 14.07-7.74-1.39-13.77-6.13-17.59-12.85-5.06-8.9-6.1-18.3-1.13-27.92 4.56-8.83 11.73-12.91 23.24-12.73zm0.18 49.23c10.49-0.4 17.13-4.56 22.11-14.77 3.54-7.25 3.33-14.73-1.92-20.83-5.02-5.85-11.18-10.32-19.57-10.75-6.75-0.34-12.54 1.18-16.92 6.37-4.68 5.54-7.2 11.87-6.36 19.49 1.33 12.05 13.04 20.88 22.66 20.49z"/></clipPath></defs><style>.a{fill:#e0e9ef}.b{fill:#02374e}</style><g clip-path="url(#cp1)"><g clip-path="url(#cp2)"><path class="a" d="m9 69.8h156.4v152.2h-156.4z"/></g><g clip-path="url(#cp3)"><path class="b" d="m0.5 65.2h162.4v158.9h-162.4z"/></g><g clip-path="url(#cp4)"><path class="b" d="m127.2 0.3h131.6v129.7h-131.6z"/></g><g clip-path="url(#cp5)"><path class="b" d="m43.2 106h72.7v70.8h-72.7z"/></g><g clip-path="url(#cp6)"><path class="b" d="m163.3 37.7h61.2v60h-61.2z"/></g></g></svg>